# WaveFront *.obj file (generated by Autodesk ATF)

v -6.500000 -0.000000 0.000000
v -6.486645 -0.416456 0.000000
v -6.446635 -0.831202 0.000000
v -6.380135 -1.242531 0.000000
v -6.287417 -1.648755 0.000000
v -6.168862 -2.048203 0.000000
v -6.024959 -2.439236 0.000000
v -5.856298 -2.820244 0.000000
v -5.663572 -3.189664 0.000000
v -5.447573 -3.545977 0.000000
v -5.209189 -3.887718 0.000000
v -4.949399 -4.213485 0.000000
v -4.669271 -4.521937 0.000000
v -4.369956 -4.811807 0.000000
v -4.052684 -5.081905 0.000000
v -3.718758 -5.331120 0.000000
v -3.369552 -5.558428 0.000000
v -3.006499 -5.762895 0.000000
v -2.631092 -5.943682 0.000000
v -2.244873 -6.100045 0.000000
v -1.849429 -6.231341 0.000000
v -1.446386 -6.337031 0.000000
v -1.037399 -6.416682 0.000000
v -0.624150 -6.469964 0.000000
v -0.208335 -6.496660 0.000000
v 0.208335 -6.496660 0.000000
v 0.624150 -6.469964 0.000000
v 1.037399 -6.416682 0.000000
v 1.446386 -6.337031 0.000000
v 1.849429 -6.231341 0.000000
v 2.244873 -6.100045 0.000000
v 2.631092 -5.943682 0.000000
v 3.006499 -5.762895 0.000000
v 3.369552 -5.558428 0.000000
v 3.718758 -5.331120 0.000000
v 4.052684 -5.081905 0.000000
v 4.369956 -4.811807 0.000000
v 4.669271 -4.521937 0.000000
v 4.949399 -4.213485 0.000000
v 5.209189 -3.887718 0.000000
v 5.447573 -3.545977 0.000000
v 5.663572 -3.189664 0.000000
v 5.856298 -2.820244 0.000000
v 6.024959 -2.439236 0.000000
v 6.168862 -2.048203 0.000000
v 6.287417 -1.648755 0.000000
v 6.380135 -1.242531 0.000000
v 6.446635 -0.831202 0.000000
v 6.486645 -0.416456 0.000000
v 6.500000 0.000000 0.000000
v 6.486645 0.416456 0.000000
v 6.446635 0.831202 0.000000
v 6.380135 1.242531 0.000000
v 6.287417 1.648755 0.000000
v 6.168862 2.048203 0.000000
v 6.024959 2.439236 0.000000
v 5.856298 2.820244 0.000000
v 5.663572 3.189664 0.000000
v 5.447573 3.545977 0.000000
v 5.209189 3.887718 0.000000
v 4.949399 4.213485 0.000000
v 4.669271 4.521937 0.000000
v 4.369956 4.811807 0.000000
v 4.052684 5.081905 0.000000
v 3.718758 5.331120 0.000000
v 3.369552 5.558428 0.000000
v 3.006499 5.762895 0.000000
v 2.631092 5.943682 0.000000
v 2.244873 6.100045 0.000000
v 1.849429 6.231341 0.000000
v 1.446386 6.337031 0.000000
v 1.037399 6.416682 0.000000
v 0.624150 6.469964 0.000000
v 0.208335 6.496660 0.000000
v -0.208335 6.496660 0.000000
v -0.624150 6.469964 0.000000
v -1.037399 6.416682 0.000000
v -1.446386 6.337031 0.000000
v -1.849429 6.231341 0.000000
v -2.244873 6.100045 0.000000
v -2.631092 5.943682 0.000000
v -3.006499 5.762895 0.000000
v -3.369552 5.558428 0.000000
v -3.718758 5.331120 0.000000
v -4.052684 5.081905 0.000000
v -4.369956 4.811807 0.000000
v -4.669271 4.521937 0.000000
v -4.949399 4.213485 0.000000
v -5.209189 3.887718 0.000000
v -5.447573 3.545977 0.000000
v -5.663572 3.189664 0.000000
v -5.856298 2.820244 0.000000
v -6.024959 2.439236 0.000000
v -6.168862 2.048203 0.000000
v -6.287417 1.648755 0.000000
v -6.380135 1.242531 0.000000
v -6.446635 0.831202 0.000000
v -6.486645 0.416456 0.000000
v -7.000000 -0.000000 -0.300000
v -6.986459 0.435187 -0.300000
v -6.945889 0.868691 -0.300000
v -6.878447 1.298834 -0.300000
v -6.784393 1.723952 -0.300000
v -6.664092 2.142401 -0.300000
v -6.518008 2.552561 -0.300000
v -6.346708 2.952845 -0.300000
v -6.150854 3.341706 -0.300000
v -5.931203 3.717638 -0.300000
v -5.688605 4.079187 -0.300000
v -5.424000 4.424955 -0.300000
v -5.138410 4.753603 -0.300000
v -4.832940 5.063861 -0.300000
v -4.508773 5.354528 -0.300000
v -4.167162 5.624479 -0.300000
v -3.809429 5.872670 -0.300000
v -3.436959 6.098140 -0.300000
v -3.051191 6.300019 -0.300000
v -2.653619 6.477523 -0.300000
v -2.245780 6.629968 -0.300000
v -1.829253 6.756762 -0.300000
v -1.405650 6.857416 -0.300000
v -0.976607 6.931539 -0.300000
v -0.543787 6.978846 -0.300000
v -0.108863 6.999153 -0.300000
v 0.326483 6.992382 -0.300000
v 0.760565 6.958559 -0.300000
v 1.191705 6.897814 -0.300000
v 1.618234 6.810383 -0.300000
v 2.038503 6.696604 -0.300000
v 2.450885 6.556917 -0.300000
v 2.853785 6.391863 -0.300000
v 3.245645 6.202080 -0.300000
v 3.624947 5.988302 -0.300000
v 3.990226 5.751356 -0.300000
v 4.340067 5.492160 -0.300000
v 4.673117 5.211715 -0.300000
v 4.988088 4.911108 -0.300000
v 5.283761 4.591500 -0.300000
v 5.558992 4.254129 -0.300000
v 5.812716 3.900299 -0.300000
v 6.043952 3.531380 -0.300000
v 6.251805 3.148799 -0.300000
v 6.435471 2.754035 -0.300000
v 6.594240 2.348617 -0.300000
v 6.727497 1.934112 -0.300000
v 6.834726 1.512125 -0.300000
v 6.915513 1.084287 -0.300000
v 6.969545 0.652255 -0.300000
v 6.996614 0.217699 -0.300000
v 6.996614 -0.217699 -0.300000
v 6.969545 -0.652255 -0.300000
v 6.915513 -1.084287 -0.300000
v 6.834726 -1.512125 -0.300000
v 6.727497 -1.934112 -0.300000
v 6.594240 -2.348617 -0.300000
v 6.435471 -2.754035 -0.300000
v 6.251805 -3.148799 -0.300000
v 6.043952 -3.531380 -0.300000
v 5.812716 -3.900299 -0.300000
v 5.558992 -4.254129 -0.300000
v 5.283761 -4.591500 -0.300000
v 4.988088 -4.911108 -0.300000
v 4.673117 -5.211715 -0.300000
v 4.340067 -5.492160 -0.300000
v 3.990226 -5.751356 -0.300000
v 3.624947 -5.988302 -0.300000
v 3.245645 -6.202080 -0.300000
v 2.853785 -6.391863 -0.300000
v 2.450885 -6.556917 -0.300000
v 2.038503 -6.696604 -0.300000
v 1.618234 -6.810383 -0.300000
v 1.191705 -6.897814 -0.300000
v 0.760565 -6.958559 -0.300000
v 0.326483 -6.992382 -0.300000
v -0.108863 -6.999153 -0.300000
v -0.543787 -6.978846 -0.300000
v -0.976607 -6.931539 -0.300000
v -1.405650 -6.857416 -0.300000
v -1.829253 -6.756762 -0.300000
v -2.245780 -6.629968 -0.300000
v -2.653619 -6.477523 -0.300000
v -3.051191 -6.300019 -0.300000
v -3.436959 -6.098140 -0.300000
v -3.809429 -5.872670 -0.300000
v -4.167162 -5.624479 -0.300000
v -4.508773 -5.354528 -0.300000
v -4.832940 -5.063861 -0.300000
v -5.138410 -4.753603 -0.300000
v -5.424000 -4.424955 -0.300000
v -5.688605 -4.079187 -0.300000
v -5.931203 -3.717638 -0.300000
v -6.150854 -3.341706 -0.300000
v -6.346708 -2.952845 -0.300000
v -6.518008 -2.552561 -0.300000
v -6.664092 -2.142401 -0.300000
v -6.784393 -1.723952 -0.300000
v -6.878447 -1.298834 -0.300000
v -6.945889 -0.868691 -0.300000
v -6.986459 -0.435187 -0.300000
v -6.500000 -0.000000 8.000000
v -6.486645 -0.416456 8.000000
v -6.446635 -0.831202 8.000000
v -6.380135 -1.242531 8.000000
v -6.287417 -1.648755 8.000000
v -6.168862 -2.048203 8.000000
v -6.024959 -2.439236 8.000000
v -5.856298 -2.820244 8.000000
v -5.663572 -3.189664 8.000000
v -5.447573 -3.545977 8.000000
v -5.209189 -3.887718 8.000000
v -4.949399 -4.213485 8.000000
v -4.669271 -4.521937 8.000000
v -4.369956 -4.811807 8.000000
v -4.052684 -5.081905 8.000000
v -3.718758 -5.331120 8.000000
v -3.369552 -5.558428 8.000000
v -3.006499 -5.762895 8.000000
v -2.631092 -5.943682 8.000000
v -2.244873 -6.100045 8.000000
v -1.849429 -6.231341 8.000000
v -1.446386 -6.337031 8.000000
v -1.037399 -6.416682 8.000000
v -0.624150 -6.469964 8.000000
v -0.208335 -6.496660 8.000000
v 0.208335 -6.496660 8.000000
v 0.624150 -6.469964 8.000000
v 1.037399 -6.416682 8.000000
v 1.446386 -6.337031 8.000000
v 1.849429 -6.231341 8.000000
v 2.244873 -6.100045 8.000000
v 2.631092 -5.943682 8.000000
v 3.006499 -5.762895 8.000000
v 3.369552 -5.558428 8.000000
v 3.718758 -5.331120 8.000000
v 4.052684 -5.081905 8.000000
v 4.369956 -4.811807 8.000000
v 4.669271 -4.521937 8.000000
v 4.949399 -4.213485 8.000000
v 5.209189 -3.887718 8.000000
v 5.447573 -3.545977 8.000000
v 5.663572 -3.189664 8.000000
v 5.856298 -2.820244 8.000000
v 6.024959 -2.439236 8.000000
v 6.168862 -2.048203 8.000000
v 6.287417 -1.648755 8.000000
v 6.380135 -1.242531 8.000000
v 6.446635 -0.831202 8.000000
v 6.486645 -0.416456 8.000000
v 6.500000 0.000000 8.000000
v 6.486645 0.416456 8.000000
v 6.446635 0.831202 8.000000
v 6.380135 1.242531 8.000000
v 6.287417 1.648755 8.000000
v 6.168862 2.048203 8.000000
v 6.024959 2.439236 8.000000
v 5.856298 2.820244 8.000000
v 5.663572 3.189664 8.000000
v 5.447573 3.545977 8.000000
v 5.209189 3.887718 8.000000
v 4.949399 4.213485 8.000000
v 4.669271 4.521937 8.000000
v 4.369956 4.811807 8.000000
v 4.052684 5.081905 8.000000
v 3.718758 5.331120 8.000000
v 3.369552 5.558428 8.000000
v 3.006499 5.762895 8.000000
v 2.631092 5.943682 8.000000
v 2.244873 6.100045 8.000000
v 1.849429 6.231341 8.000000
v 1.446386 6.337031 8.000000
v 1.037399 6.416682 8.000000
v 0.624150 6.469964 8.000000
v 0.208335 6.496660 8.000000
v -0.208335 6.496660 8.000000
v -0.624150 6.469964 8.000000
v -1.037399 6.416682 8.000000
v -1.446386 6.337031 8.000000
v -1.849429 6.231341 8.000000
v -2.244873 6.100045 8.000000
v -2.631092 5.943682 8.000000
v -3.006499 5.762895 8.000000
v -3.369552 5.558428 8.000000
v -3.718758 5.331120 8.000000
v -4.052684 5.081905 8.000000
v -4.369956 4.811807 8.000000
v -4.669271 4.521937 8.000000
v -4.949399 4.213485 8.000000
v -5.209189 3.887718 8.000000
v -5.447573 3.545977 8.000000
v -5.663572 3.189664 8.000000
v -5.856298 2.820244 8.000000
v -6.024959 2.439236 8.000000
v -6.168862 2.048203 8.000000
v -6.287417 1.648755 8.000000
v -6.380135 1.242531 8.000000
v -6.446635 0.831202 8.000000
v -6.486645 0.416456 8.000000
v -7.000000 -0.000000 8.000000
v -6.986459 0.435187 8.000000
v -6.945889 0.868691 8.000000
v -6.878447 1.298834 8.000000
v -6.784393 1.723952 8.000000
v -6.664092 2.142401 8.000000
v -6.518008 2.552561 8.000000
v -6.346708 2.952845 8.000000
v -6.150854 3.341706 8.000000
v -5.931203 3.717638 8.000000
v -5.688605 4.079187 8.000000
v -5.424000 4.424955 8.000000
v -5.138410 4.753603 8.000000
v -4.832940 5.063861 8.000000
v -4.508773 5.354528 8.000000
v -4.167162 5.624479 8.000000
v -3.809429 5.872670 8.000000
v -3.436959 6.098140 8.000000
v -3.051191 6.300019 8.000000
v -2.653619 6.477523 8.000000
v -2.245780 6.629968 8.000000
v -1.829253 6.756762 8.000000
v -1.405650 6.857416 8.000000
v -0.976607 6.931539 8.000000
v -0.543787 6.978846 8.000000
v -0.108863 6.999153 8.000000
v 0.326483 6.992382 8.000000
v 0.760565 6.958559 8.000000
v 1.191705 6.897814 8.000000
v 1.618234 6.810383 8.000000
v 2.038503 6.696604 8.000000
v 2.450885 6.556917 8.000000
v 2.853785 6.391863 8.000000
v 3.245645 6.202080 8.000000
v 3.624947 5.988302 8.000000
v 3.990226 5.751356 8.000000
v 4.340067 5.492160 8.000000
v 4.673117 5.211715 8.000000
v 4.988088 4.911108 8.000000
v 5.283761 4.591500 8.000000
v 5.558992 4.254129 8.000000
v 5.812716 3.900299 8.000000
v 6.043952 3.531380 8.000000
v 6.251805 3.148799 8.000000
v 6.435471 2.754035 8.000000
v 6.594240 2.348617 8.000000
v 6.727497 1.934112 8.000000
v 6.834726 1.512125 8.000000
v 6.915513 1.084287 8.000000
v 6.969545 0.652255 8.000000
v 6.996614 0.217699 8.000000
v 6.996614 -0.217699 8.000000
v 6.969545 -0.652255 8.000000
v 6.915513 -1.084287 8.000000
v 6.834726 -1.512125 8.000000
v 6.727497 -1.934112 8.000000
v 6.594240 -2.348617 8.000000
v 6.435471 -2.754035 8.000000
v 6.251805 -3.148799 8.000000
v 6.043952 -3.531380 8.000000
v 5.812716 -3.900299 8.000000
v 5.558992 -4.254129 8.000000
v 5.283761 -4.591500 8.000000
v 4.988088 -4.911108 8.000000
v 4.673117 -5.211715 8.000000
v 4.340067 -5.492160 8.000000
v 3.990226 -5.751356 8.000000
v 3.624947 -5.988302 8.000000
v 3.245645 -6.202080 8.000000
v 2.853785 -6.391863 8.000000
v 2.450885 -6.556917 8.000000
v 2.038503 -6.696604 8.000000
v 1.618234 -6.810383 8.000000
v 1.191705 -6.897814 8.000000
v 0.760565 -6.958559 8.000000
v 0.326483 -6.992382 8.000000
v -0.108863 -6.999153 8.000000
v -0.543787 -6.978846 8.000000
v -0.976607 -6.931539 8.000000
v -1.405650 -6.857416 8.000000
v -1.829253 -6.756762 8.000000
v -2.245780 -6.629968 8.000000
v -2.653619 -6.477523 8.000000
v -3.051191 -6.300019 8.000000
v -3.436959 -6.098140 8.000000
v -3.809429 -5.872670 8.000000
v -4.167162 -5.624479 8.000000
v -4.508773 -5.354528 8.000000
v -4.832940 -5.063861 8.000000
v -5.138410 -4.753603 8.000000
v -5.424000 -4.424955 8.000000
v -5.688605 -4.079187 8.000000
v -5.931203 -3.717638 8.000000
v -6.150854 -3.341706 8.000000
v -6.346708 -2.952845 8.000000
v -6.518008 -2.552561 8.000000
v -6.664092 -2.142401 8.000000
v -6.784393 -1.723952 8.000000
v -6.878447 -1.298834 8.000000
v -6.945889 -0.868691 8.000000
v -6.986459 -0.435187 8.000000
vt -6.486645 -0.416456 0.000000
vt 6.486645 -0.416456 0.000000
vt -6.500000 -0.000000 0.000000
vt 6.500000 0.000000 0.000000
vt -6.486645 0.416456 0.000000
vt 6.486645 0.416456 0.000000
vt -6.446635 0.831202 0.000000
vt 6.446635 0.831202 0.000000
vt -6.380135 1.242531 0.000000
vt 6.380135 1.242531 0.000000
vt -6.287417 1.648755 0.000000
vt 6.287417 1.648755 0.000000
vt -6.168862 2.048203 0.000000
vt 6.168862 2.048203 0.000000
vt -6.024959 2.439236 0.000000
vt 6.024959 2.439236 0.000000
vt -5.856298 2.820244 0.000000
vt 5.856298 2.820244 0.000000
vt -5.663572 3.189664 0.000000
vt 5.663572 3.189664 0.000000
vt -5.447573 3.545977 0.000000
vt 5.447573 3.545977 0.000000
vt -5.209189 3.887718 0.000000
vt 5.209189 3.887718 0.000000
vt -4.949399 4.213485 0.000000
vt 4.949399 4.213485 0.000000
vt -4.669271 4.521937 0.000000
vt 4.669271 4.521937 0.000000
vt -4.369956 4.811807 0.000000
vt 4.369956 4.811807 0.000000
vt -4.052684 5.081905 0.000000
vt 4.052684 5.081905 0.000000
vt -3.718758 5.331120 0.000000
vt 3.718758 5.331120 0.000000
vt -3.369552 5.558428 0.000000
vt 3.369552 5.558428 0.000000
vt -3.006499 5.762895 0.000000
vt 3.006499 5.762895 0.000000
vt -2.631092 5.943682 0.000000
vt 2.631092 5.943682 0.000000
vt -2.244873 6.100045 0.000000
vt 2.244873 6.100045 0.000000
vt -1.849429 6.231341 0.000000
vt 1.849429 6.231341 0.000000
vt -1.446386 6.337031 0.000000
vt 1.446386 6.337031 0.000000
vt -1.037399 6.416682 0.000000
vt 1.037399 6.416682 0.000000
vt -0.624150 6.469964 0.000000
vt 0.624150 6.469964 0.000000
vt -0.208335 6.496660 0.000000
vt 0.208335 6.496660 0.000000
vt 6.446635 -0.831202 0.000000
vt -6.446635 -0.831202 0.000000
vt 6.380135 -1.242531 0.000000
vt -6.380135 -1.242531 0.000000
vt 6.287417 -1.648755 0.000000
vt -6.287417 -1.648755 0.000000
vt 6.168862 -2.048203 0.000000
vt -6.168862 -2.048203 0.000000
vt 6.024959 -2.439236 0.000000
vt -6.024959 -2.439236 0.000000
vt 5.856298 -2.820244 0.000000
vt -5.856298 -2.820244 0.000000
vt 5.663572 -3.189664 0.000000
vt -5.663572 -3.189664 0.000000
vt 5.447573 -3.545977 0.000000
vt -5.447573 -3.545977 0.000000
vt 5.209189 -3.887718 0.000000
vt -5.209189 -3.887718 0.000000
vt 4.949399 -4.213485 0.000000
vt -4.949399 -4.213485 0.000000
vt 4.669271 -4.521937 0.000000
vt -4.669271 -4.521937 0.000000
vt 4.369956 -4.811807 0.000000
vt -4.369956 -4.811807 0.000000
vt 4.052684 -5.081905 0.000000
vt -4.052684 -5.081905 0.000000
vt 3.718758 -5.331120 0.000000
vt -3.718758 -5.331120 0.000000
vt 3.369552 -5.558428 0.000000
vt -3.369552 -5.558428 0.000000
vt 3.006499 -5.762895 0.000000
vt -3.006499 -5.762895 0.000000
vt 2.631092 -5.943682 0.000000
vt -2.631092 -5.943682 0.000000
vt 2.244873 -6.100045 0.000000
vt -2.244873 -6.100045 0.000000
vt 1.849429 -6.231341 0.000000
vt -1.849429 -6.231341 0.000000
vt 1.446386 -6.337031 0.000000
vt -1.446386 -6.337031 0.000000
vt 1.037399 -6.416682 0.000000
vt -1.037399 -6.416682 0.000000
vt 0.624150 -6.469964 0.000000
vt -0.624150 -6.469964 0.000000
vt 0.208335 -6.496660 0.000000
vt -0.208335 -6.496660 0.000000
vt 6.986459 0.435187 0.000000
vt -6.996614 0.217699 0.000000
vt 7.000000 -0.000000 0.000000
vt -6.996614 -0.217699 0.000000
vt 6.986459 -0.435187 0.000000
vt -6.969545 -0.652255 0.000000
vt 6.945889 -0.868691 0.000000
vt -6.915513 -1.084287 0.000000
vt 6.878447 -1.298834 0.000000
vt -6.834726 -1.512125 0.000000
vt 6.784393 -1.723952 0.000000
vt -6.727497 -1.934112 0.000000
vt 6.664092 -2.142401 0.000000
vt -6.594240 -2.348617 0.000000
vt 6.518008 -2.552561 0.000000
vt -6.435471 -2.754035 0.000000
vt 6.346708 -2.952845 0.000000
vt -6.251805 -3.148799 0.000000
vt 6.150854 -3.341706 0.000000
vt -6.043952 -3.531380 0.000000
vt 5.931203 -3.717638 0.000000
vt -5.812716 -3.900299 0.000000
vt 5.688605 -4.079187 0.000000
vt -5.558992 -4.254129 0.000000
vt 5.424000 -4.424955 0.000000
vt -5.283761 -4.591500 0.000000
vt 5.138410 -4.753603 0.000000
vt -4.988088 -4.911108 0.000000
vt 4.832940 -5.063861 0.000000
vt -4.673117 -5.211715 0.000000
vt 4.508773 -5.354528 0.000000
vt -4.340067 -5.492160 0.000000
vt 4.167162 -5.624479 0.000000
vt -3.990226 -5.751356 0.000000
vt 3.809429 -5.872670 0.000000
vt -3.624947 -5.988302 0.000000
vt 3.436959 -6.098140 0.000000
vt -3.245645 -6.202080 0.000000
vt 3.051191 -6.300019 0.000000
vt -2.853785 -6.391863 0.000000
vt 2.653619 -6.477523 0.000000
vt -2.450885 -6.556917 0.000000
vt 2.245780 -6.629968 0.000000
vt -2.038503 -6.696604 0.000000
vt 1.829253 -6.756762 0.000000
vt -1.618234 -6.810383 0.000000
vt 1.405650 -6.857416 0.000000
vt -1.191705 -6.897814 0.000000
vt 0.976607 -6.931539 0.000000
vt -0.760565 -6.958559 0.000000
vt 0.543787 -6.978846 0.000000
vt -0.326483 -6.992382 0.000000
vt 0.108863 -6.999153 0.000000
vt -6.969545 0.652255 0.000000
vt 6.945889 0.868691 0.000000
vt -6.915513 1.084287 0.000000
vt 6.878447 1.298834 0.000000
vt -6.834726 1.512125 0.000000
vt 6.784393 1.723952 0.000000
vt -6.727497 1.934112 0.000000
vt 6.664092 2.142401 0.000000
vt 6.518008 2.552561 0.000000
vt 6.346708 2.952845 0.000000
vt 6.150854 3.341706 0.000000
vt 5.931203 3.717638 0.000000
vt 5.688605 4.079187 0.000000
vt 5.424000 4.424955 0.000000
vt 5.138410 4.753603 0.000000
vt 4.832940 5.063861 0.000000
vt 4.508773 5.354528 0.000000
vt 4.167162 5.624479 0.000000
vt 3.809429 5.872670 0.000000
vt 3.436959 6.098140 0.000000
vt 3.051191 6.300019 0.000000
vt 2.653619 6.477523 0.000000
vt 2.245780 6.629968 0.000000
vt 1.829253 6.756762 0.000000
vt 1.405650 6.857416 0.000000
vt 0.976607 6.931539 0.000000
vt 0.543787 6.978846 0.000000
vt 0.108863 6.999153 0.000000
vt -0.326483 6.992382 0.000000
vt -0.760565 6.958559 0.000000
vt -1.191705 6.897814 0.000000
vt -1.618234 6.810383 0.000000
vt -2.038503 6.696604 0.000000
vt -2.450885 6.556917 0.000000
vt -2.853785 6.391863 0.000000
vt -3.245645 6.202080 0.000000
vt -3.624947 5.988302 0.000000
vt -3.990226 5.751356 0.000000
vt -4.340067 5.492160 0.000000
vt -4.673117 5.211715 0.000000
vt -4.988088 4.911108 0.000000
vt -5.283761 4.591500 0.000000
vt -6.594240 2.348617 0.000000
vt -5.558992 4.254129 0.000000
vt -5.812716 3.900299 0.000000
vt -6.043952 3.531380 0.000000
vt -6.251805 3.148799 0.000000
vt -6.435471 2.754035 0.000000
vt 8.000000 -20.003610 0.000000
vt -0.000000 -20.003610 0.000000
vt 8.000000 -20.420352 0.000000
vt 0.000000 -20.420352 0.000000
vt 8.000000 20.420352 0.000000
vt 0.000000 20.420352 0.000000
vt 8.000000 20.003610 0.000000
vt 0.000000 20.003610 0.000000
vt 0.000000 19.586868 0.000000
vt 8.000000 -19.586868 0.000000
vt 0.000000 -19.586868 0.000000
vt 8.000000 -19.170127 0.000000
vt 0.000000 -19.170127 0.000000
vt 8.000000 -18.753385 0.000000
vt 0.000000 -18.753385 0.000000
vt 8.000000 -18.336643 0.000000
vt 0.000000 -18.336643 0.000000
vt 8.000000 -17.919901 0.000000
vt 0.000000 -17.919901 0.000000
vt 8.000000 -17.503159 0.000000
vt 0.000000 -17.503159 0.000000
vt 8.000000 -17.086417 0.000000
vt 0.000000 -17.086417 0.000000
vt 8.000000 -16.669675 0.000000
vt 0.000000 -16.669675 0.000000
vt 8.000000 -16.252933 0.000000
vt 0.000000 -16.252933 0.000000
vt 8.000000 -15.836192 0.000000
vt 0.000000 -15.836192 0.000000
vt 8.000000 -15.419450 0.000000
vt 0.000000 -15.419450 0.000000
vt 8.000000 -15.002708 0.000000
vt 0.000000 -15.002708 0.000000
vt 8.000000 -14.585966 0.000000
vt -0.000000 -14.585966 0.000000
vt 8.000000 -14.169224 0.000000
vt 0.000000 -14.169224 0.000000
vt 8.000000 -13.752482 0.000000
vt 0.000000 -13.752482 0.000000
vt 8.000000 -13.335740 0.000000
vt 0.000000 -13.335740 0.000000
vt 8.000000 -12.918998 0.000000
vt 0.000000 -12.918998 0.000000
vt 8.000000 -12.502256 0.000000
vt 0.000000 -12.502256 0.000000
vt 8.000000 -12.085515 0.000000
vt 0.000000 -12.085515 0.000000
vt 8.000000 -11.668773 0.000000
vt 0.000000 -11.668773 0.000000
vt 8.000000 -11.252031 0.000000
vt 0.000000 -11.252031 0.000000
vt 8.000000 -10.835289 0.000000
vt 0.000000 -10.835289 0.000000
vt 8.000000 -10.418547 0.000000
vt 0.000000 -10.418547 0.000000
vt 8.000000 -10.001805 0.000000
vt 0.000000 -10.001805 0.000000
vt 8.000000 -9.585063 0.000000
vt 0.000000 -9.585063 0.000000
vt 8.000000 -9.168321 0.000000
vt 0.000000 -9.168321 0.000000
vt 8.000000 -8.751580 0.000000
vt 0.000000 -8.751580 0.000000
vt 8.000000 -8.334838 0.000000
vt 0.000000 -8.334838 0.000000
vt 8.000000 -7.918096 0.000000
vt 0.000000 -7.918096 0.000000
vt 8.000000 -7.501354 0.000000
vt 0.000000 -7.501354 0.000000
vt 8.000000 -7.084612 0.000000
vt 0.000000 -7.084612 0.000000
vt 8.000000 -6.667870 0.000000
vt 0.000000 -6.667870 0.000000
vt 8.000000 -6.251128 0.000000
vt 0.000000 -6.251128 0.000000
vt 8.000000 -5.834386 0.000000
vt -0.000000 -5.834386 0.000000
vt 8.000000 -5.417644 0.000000
vt 0.000000 -5.417644 0.000000
vt 8.000000 -5.000903 0.000000
vt 0.000000 -5.000903 0.000000
vt 8.000000 -4.584161 0.000000
vt 0.000000 -4.584161 0.000000
vt 8.000000 -4.167419 0.000000
vt 0.000000 -4.167419 0.000000
vt 8.000000 -3.750677 0.000000
vt 0.000000 -3.750677 0.000000
vt 8.000000 -3.333935 0.000000
vt 0.000000 -3.333935 0.000000
vt 8.000000 -2.917193 0.000000
vt 0.000000 -2.917193 0.000000
vt 8.000000 -2.500451 0.000000
vt 0.000000 -2.500451 0.000000
vt 8.000000 -2.083709 0.000000
vt 0.000000 -2.083709 0.000000
vt 8.000000 -1.666968 0.000000
vt 0.000000 -1.666968 0.000000
vt 8.000000 -1.250226 0.000000
vt 0.000000 -1.250226 0.000000
vt 8.000000 -0.833484 0.000000
vt -0.000000 -0.833484 0.000000
vt 8.000000 -0.416742 0.000000
vt 0.000000 -0.416742 0.000000
vt 8.000000 0.000000 0.000000
vt 0.000000 0.000000 0.000000
vt 8.000000 0.416742 0.000000
vt 0.000000 0.416742 0.000000
vt 8.000000 0.833484 0.000000
vt 0.000000 0.833484 0.000000
vt 8.000000 1.250226 0.000000
vt 0.000000 1.250226 0.000000
vt 8.000000 1.666968 0.000000
vt 0.000000 1.666968 0.000000
vt 8.000000 2.083709 0.000000
vt 0.000000 2.083709 0.000000
vt 8.000000 2.500451 0.000000
vt 0.000000 2.500451 0.000000
vt 8.000000 2.917193 0.000000
vt 0.000000 2.917193 0.000000
vt 8.000000 3.333935 0.000000
vt 0.000000 3.333935 0.000000
vt 8.000000 3.750677 0.000000
vt 0.000000 3.750677 0.000000
vt 8.000000 4.167419 0.000000
vt 0.000000 4.167419 0.000000
vt 8.000000 4.584161 0.000000
vt 0.000000 4.584161 0.000000
vt 8.000000 5.000903 0.000000
vt 0.000000 5.000903 0.000000
vt 8.000000 5.417644 0.000000
vt 0.000000 5.417644 0.000000
vt 8.000000 5.834386 0.000000
vt -0.000000 5.834386 0.000000
vt 8.000000 6.251128 0.000000
vt 0.000000 6.251128 0.000000
vt 8.000000 6.667870 0.000000
vt 0.000000 6.667870 0.000000
vt 8.000000 7.084612 0.000000
vt 0.000000 7.084612 0.000000
vt 8.000000 7.501354 0.000000
vt 0.000000 7.501354 0.000000
vt 8.000000 7.918096 0.000000
vt -0.000000 7.918096 0.000000
vt 8.000000 8.334838 0.000000
vt 0.000000 8.334838 0.000000
vt 8.000000 8.751580 0.000000
vt 0.000000 8.751580 0.000000
vt 8.000000 9.168321 0.000000
vt -0.000000 9.168321 0.000000
vt 8.000000 9.585063 0.000000
vt 0.000000 9.585063 0.000000
vt 8.000000 10.001805 0.000000
vt 0.000000 10.001805 0.000000
vt 8.000000 10.418547 0.000000
vt 0.000000 10.418547 0.000000
vt 8.000000 10.835289 0.000000
vt 0.000000 10.835289 0.000000
vt 8.000000 11.252031 0.000000
vt -0.000000 11.252031 0.000000
vt 8.000000 11.668773 0.000000
vt 0.000000 11.668773 0.000000
vt 8.000000 12.085515 0.000000
vt 0.000000 12.085515 0.000000
vt 8.000000 12.502256 0.000000
vt 0.000000 12.502256 0.000000
vt 8.000000 12.918998 0.000000
vt 0.000000 12.918998 0.000000
vt 8.000000 13.335740 0.000000
vt 0.000000 13.335740 0.000000
vt 8.000000 13.752482 0.000000
vt 0.000000 13.752482 0.000000
vt 8.000000 14.169224 0.000000
vt 0.000000 14.169224 0.000000
vt 8.000000 14.585966 0.000000
vt -0.000000 14.585966 0.000000
vt 8.000000 15.002708 0.000000
vt 0.000000 15.002708 0.000000
vt 8.000000 15.419450 0.000000
vt 0.000000 15.419450 0.000000
vt 8.000000 15.836192 0.000000
vt 0.000000 15.836192 0.000000
vt 8.000000 16.252933 0.000000
vt 0.000000 16.252933 0.000000
vt 8.000000 16.669675 0.000000
vt 0.000000 16.669675 0.000000
vt 8.000000 17.086417 0.000000
vt 0.000000 17.086417 0.000000
vt 8.000000 17.503159 0.000000
vt 0.000000 17.503159 0.000000
vt 8.000000 17.919901 0.000000
vt 0.000000 17.919901 0.000000
vt 8.000000 18.336643 0.000000
vt -0.000000 18.336643 0.000000
vt 8.000000 18.753385 0.000000
vt 0.000000 18.753385 0.000000
vt 8.000000 19.170127 0.000000
vt 0.000000 19.170127 0.000000
vt 8.000000 19.586868 0.000000
vt 0.300000 -21.555680 0.000000
vt -8.000000 -21.555680 0.000000
vt 0.300000 -21.991149 0.000000
vt -8.000000 -21.991149 0.000000
vt 0.300000 21.991149 0.000000
vt -8.000000 21.991149 0.000000
vt 0.300000 21.555680 0.000000
vt -8.000000 21.555680 0.000000
vt 0.300000 21.120212 0.000000
vt -8.000000 21.120212 0.000000
vt 0.300000 20.684744 0.000000
vt -8.000000 20.684744 0.000000
vt 0.300000 20.249275 0.000000
vt -8.000000 20.249275 0.000000
vt 0.300000 19.813807 0.000000
vt -8.000000 19.813807 0.000000
vt 0.300000 19.378339 0.000000
vt -8.000000 19.378339 0.000000
vt 0.300000 18.942871 0.000000
vt -8.000000 18.942871 0.000000
vt 0.300000 18.507402 0.000000
vt -8.000000 18.507402 0.000000
vt 0.300000 18.071934 0.000000
vt -8.000000 18.071934 0.000000
vt 0.300000 17.636466 0.000000
vt -8.000000 17.636466 0.000000
vt 0.300000 17.200997 0.000000
vt -8.000000 17.200997 0.000000
vt 0.300000 16.765529 0.000000
vt -8.000000 16.765529 0.000000
vt 0.300000 16.330061 0.000000
vt -8.000000 16.330061 0.000000
vt 0.300000 15.894593 0.000000
vt -8.000000 15.894593 0.000000
vt 0.300000 15.459124 0.000000
vt -8.000000 15.459124 0.000000
vt 0.300000 15.023656 0.000000
vt -8.000000 15.023656 0.000000
vt 0.300000 14.588188 0.000000
vt -8.000000 14.588188 0.000000
vt 0.300000 14.152719 0.000000
vt -8.000000 14.152719 0.000000
vt 0.300000 13.717251 0.000000
vt -8.000000 13.717251 0.000000
vt 0.300000 13.281783 0.000000
vt -8.000000 13.281783 0.000000
vt 0.300000 12.846315 0.000000
vt -8.000000 12.846315 0.000000
vt 0.300000 12.410846 0.000000
vt -8.000000 12.410846 0.000000
vt 0.300000 11.975378 0.000000
vt -8.000000 11.975378 0.000000
vt 0.300000 11.539910 0.000000
vt -8.000000 11.539910 0.000000
vt 0.300000 11.104441 0.000000
vt -8.000000 11.104441 0.000000
vt 0.300000 10.668973 0.000000
vt -8.000000 10.668973 0.000000
vt 0.300000 10.233505 0.000000
vt -8.000000 10.233505 0.000000
vt 0.300000 9.798036 0.000000
vt -8.000000 9.798036 0.000000
vt 0.300000 9.362568 0.000000
vt -8.000000 9.362568 0.000000
vt 0.300000 8.927100 0.000000
vt -8.000000 8.927100 0.000000
vt 0.300000 8.491632 0.000000
vt -8.000000 8.491632 0.000000
vt 0.300000 8.056163 0.000000
vt -8.000000 8.056163 0.000000
vt 0.300000 7.620695 0.000000
vt -8.000000 7.620695 0.000000
vt 0.300000 7.185227 0.000000
vt -8.000000 7.185227 0.000000
vt 0.300000 6.749758 0.000000
vt -8.000000 6.749758 0.000000
vt 0.300000 6.314290 0.000000
vt -8.000000 6.314290 0.000000
vt 0.300000 5.878822 0.000000
vt -8.000000 5.878822 0.000000
vt 0.300000 5.443354 0.000000
vt -8.000000 5.443354 0.000000
vt 0.300000 5.007885 0.000000
vt -8.000000 5.007885 0.000000
vt 0.300000 4.572417 0.000000
vt -8.000000 4.572417 0.000000
vt 0.300000 4.136949 0.000000
vt -8.000000 4.136949 0.000000
vt 0.300000 3.701480 0.000000
vt -8.000000 3.701480 0.000000
vt 0.300000 3.266012 0.000000
vt -8.000000 3.266012 0.000000
vt 0.300000 2.830544 0.000000
vt -8.000000 2.830544 0.000000
vt 0.300000 2.395076 0.000000
vt -8.000000 2.395076 0.000000
vt 0.300000 1.959607 0.000000
vt -8.000000 1.959607 0.000000
vt 0.300000 1.524139 0.000000
vt -8.000000 1.524139 0.000000
vt 0.300000 1.088671 0.000000
vt -8.000000 1.088671 0.000000
vt 0.300000 0.653202 0.000000
vt -8.000000 0.653202 0.000000
vt 0.300000 0.217734 0.000000
vt -8.000000 0.217734 0.000000
vt 0.300000 -0.217734 0.000000
vt -8.000000 -0.217734 0.000000
vt 0.300000 -0.653202 0.000000
vt -8.000000 -0.653202 0.000000
vt 0.300000 -1.088671 0.000000
vt -8.000000 -1.088671 0.000000
vt 0.300000 -1.524139 0.000000
vt -8.000000 -1.524139 0.000000
vt 0.300000 -1.959607 0.000000
vt -8.000000 -1.959607 0.000000
vt 0.300000 -2.395076 0.000000
vt -8.000000 -2.395076 0.000000
vt 0.300000 -2.830544 0.000000
vt -8.000000 -2.830544 0.000000
vt 0.300000 -3.266012 0.000000
vt -8.000000 -3.266012 0.000000
vt 0.300000 -3.701480 0.000000
vt -8.000000 -3.701480 0.000000
vt 0.300000 -4.136949 0.000000
vt -8.000000 -4.136949 0.000000
vt 0.300000 -4.572417 0.000000
vt -8.000000 -4.572417 0.000000
vt 0.300000 -5.007885 0.000000
vt -8.000000 -5.007885 0.000000
vt 0.300000 -5.443354 0.000000
vt -8.000000 -5.443354 0.000000
vt 0.300000 -5.878822 0.000000
vt -8.000000 -5.878822 0.000000
vt 0.300000 -6.314290 0.000000
vt -8.000000 -6.314290 0.000000
vt 0.300000 -6.749758 0.000000
vt -8.000000 -6.749758 0.000000
vt 0.300000 -7.185227 0.000000
vt -8.000000 -7.185227 0.000000
vt 0.300000 -7.620695 0.000000
vt -8.000000 -7.620695 0.000000
vt 0.300000 -8.056163 0.000000
vt -8.000000 -8.056163 0.000000
vt 0.300000 -8.491632 0.000000
vt -8.000000 -8.491632 0.000000
vt 0.300000 -8.927100 0.000000
vt -8.000000 -8.927100 0.000000
vt 0.300000 -9.362568 0.000000
vt -8.000000 -9.362568 0.000000
vt 0.300000 -9.798036 0.000000
vt -8.000000 -9.798036 0.000000
vt 0.300000 -10.233505 0.000000
vt -8.000000 -10.233505 0.000000
vt 0.300000 -10.668973 0.000000
vt -8.000000 -10.668973 0.000000
vt 0.300000 -11.104441 0.000000
vt -8.000000 -11.104441 0.000000
vt 0.300000 -11.539910 0.000000
vt -8.000000 -11.539910 0.000000
vt 0.300000 -11.975378 0.000000
vt -8.000000 -11.975378 0.000000
vt 0.300000 -12.410846 0.000000
vt -8.000000 -12.410846 0.000000
vt 0.300000 -12.846315 0.000000
vt -8.000000 -12.846315 0.000000
vt 0.300000 -13.281783 0.000000
vt -8.000000 -13.281783 0.000000
vt 0.300000 -13.717251 0.000000
vt -8.000000 -13.717251 0.000000
vt 0.300000 -14.152719 0.000000
vt -8.000000 -14.152719 0.000000
vt 0.300000 -14.588188 0.000000
vt -8.000000 -14.588188 0.000000
vt 0.300000 -15.023656 0.000000
vt -8.000000 -15.023656 0.000000
vt 0.300000 -15.459124 0.000000
vt -8.000000 -15.459124 0.000000
vt 0.300000 -15.894593 0.000000
vt -8.000000 -15.894593 0.000000
vt 0.300000 -16.330061 0.000000
vt -8.000000 -16.330061 0.000000
vt 0.300000 -16.765529 0.000000
vt -8.000000 -16.765529 0.000000
vt 0.300000 -17.200997 0.000000
vt -8.000000 -17.200997 0.000000
vt 0.300000 -17.636466 0.000000
vt -8.000000 -17.636466 0.000000
vt 0.300000 -18.071934 0.000000
vt -8.000000 -18.071934 0.000000
vt 0.300000 -18.507402 0.000000
vt -8.000000 -18.507402 0.000000
vt 0.300000 -18.942871 0.000000
vt -8.000000 -18.942871 0.000000
vt 0.300000 -19.378339 0.000000
vt -8.000000 -19.378339 0.000000
vt 0.300000 -19.813807 0.000000
vt -8.000000 -19.813807 0.000000
vt 0.300000 -20.249275 0.000000
vt -8.000000 -20.249275 0.000000
vt 0.300000 -20.684744 0.000000
vt -8.000000 -20.684744 0.000000
vt 0.300000 -21.120212 0.000000
vt -8.000000 -21.120212 0.000000
vt -6.486645 0.416456 0.000000
vt -6.986459 0.435187 0.000000
vt -6.500000 -0.000000 0.000000
vt -7.000000 -0.000000 0.000000
vt -6.986459 -0.435187 0.000000
vt -6.945889 0.868691 0.000000
vt -6.446635 0.831202 0.000000
vt -6.878447 1.298834 0.000000
vt -6.380135 1.242531 0.000000
vt -6.784393 1.723952 0.000000
vt -6.287417 1.648755 0.000000
vt -6.664092 2.142401 0.000000
vt -6.168862 2.048203 0.000000
vt -6.518008 2.552561 0.000000
vt -6.024959 2.439236 0.000000
vt -6.346708 2.952845 0.000000
vt -5.856298 2.820244 0.000000
vt -6.150854 3.341706 0.000000
vt -5.663572 3.189664 0.000000
vt -5.931203 3.717638 0.000000
vt -5.447573 3.545977 0.000000
vt -5.688605 4.079187 0.000000
vt -5.209189 3.887718 0.000000
vt -5.424000 4.424955 0.000000
vt -4.949399 4.213485 0.000000
vt -5.138410 4.753603 0.000000
vt -4.669271 4.521937 0.000000
vt -4.832940 5.063861 0.000000
vt -4.369956 4.811807 0.000000
vt -4.508773 5.354528 0.000000
vt -4.052684 5.081905 0.000000
vt -4.167162 5.624479 0.000000
vt -3.718758 5.331120 0.000000
vt -3.809429 5.872670 0.000000
vt -3.369552 5.558428 0.000000
vt -3.436959 6.098140 0.000000
vt -3.006499 5.762895 0.000000
vt -3.051191 6.300019 0.000000
vt -2.631092 5.943682 0.000000
vt -2.653619 6.477523 0.000000
vt -2.244873 6.100045 0.000000
vt -2.245780 6.629968 0.000000
vt -1.849429 6.231341 0.000000
vt -1.829253 6.756762 0.000000
vt -1.446386 6.337031 0.000000
vt -1.405650 6.857416 0.000000
vt -1.037399 6.416682 0.000000
vt -0.976607 6.931539 0.000000
vt -0.624150 6.469964 0.000000
vt -0.543787 6.978846 0.000000
vt -0.208335 6.496660 0.000000
vt -0.108863 6.999153 0.000000
vt 0.208335 6.496660 0.000000
vt 0.326483 6.992382 0.000000
vt 0.624150 6.469964 0.000000
vt 0.760565 6.958559 0.000000
vt 1.037399 6.416682 0.000000
vt 1.191705 6.897814 0.000000
vt 1.446386 6.337031 0.000000
vt 1.618234 6.810383 0.000000
vt 1.849429 6.231341 0.000000
vt 2.038503 6.696604 0.000000
vt 2.244873 6.100045 0.000000
vt 2.450885 6.556917 0.000000
vt 2.631092 5.943682 0.000000
vt 2.853785 6.391863 0.000000
vt 3.006499 5.762895 0.000000
vt 3.245645 6.202080 0.000000
vt 3.369552 5.558428 0.000000
vt 3.624947 5.988302 0.000000
vt 3.990226 5.751356 0.000000
vt 3.718758 5.331120 0.000000
vt 4.340067 5.492160 0.000000
vt 4.052684 5.081905 0.000000
vt 4.673117 5.211715 0.000000
vt 4.369956 4.811807 0.000000
vt 4.988088 4.911108 0.000000
vt 4.669271 4.521937 0.000000
vt 5.283761 4.591500 0.000000
vt 4.949399 4.213485 0.000000
vt 5.558992 4.254129 0.000000
vt 5.209189 3.887718 0.000000
vt 5.812716 3.900299 0.000000
vt 5.447573 3.545977 0.000000
vt 6.043952 3.531380 0.000000
vt 5.663572 3.189664 0.000000
vt 6.251805 3.148799 0.000000
vt 5.856298 2.820244 0.000000
vt 6.435471 2.754035 0.000000
vt 6.024959 2.439236 0.000000
vt 6.594240 2.348617 0.000000
vt 6.168862 2.048203 0.000000
vt 6.727497 1.934112 0.000000
vt 6.287417 1.648755 0.000000
vt 6.834726 1.512125 0.000000
vt 6.380135 1.242531 0.000000
vt 6.915513 1.084287 0.000000
vt 6.446635 0.831202 0.000000
vt 6.969545 0.652255 0.000000
vt 6.486645 0.416456 0.000000
vt 6.996614 0.217699 0.000000
vt 6.500000 0.000000 0.000000
vt 6.996614 -0.217699 0.000000
vt 6.486645 -0.416456 0.000000
vt 6.969545 -0.652255 0.000000
vt 6.446635 -0.831202 0.000000
vt 6.915513 -1.084287 0.000000
vt 6.380135 -1.242531 0.000000
vt 6.834726 -1.512125 0.000000
vt 6.287417 -1.648755 0.000000
vt 6.727497 -1.934112 0.000000
vt 6.168862 -2.048203 0.000000
vt 6.594240 -2.348617 0.000000
vt 6.024959 -2.439236 0.000000
vt 6.435471 -2.754035 0.000000
vt 5.856298 -2.820244 0.000000
vt 6.251805 -3.148799 0.000000
vt 5.663572 -3.189664 0.000000
vt 6.043952 -3.531380 0.000000
vt 5.447573 -3.545977 0.000000
vt 5.812716 -3.900299 0.000000
vt 5.209189 -3.887718 0.000000
vt 5.558992 -4.254129 0.000000
vt 4.949399 -4.213485 0.000000
vt 5.283761 -4.591500 0.000000
vt 4.669271 -4.521937 0.000000
vt 4.988088 -4.911108 0.000000
vt 4.369956 -4.811807 0.000000
vt 4.673117 -5.211715 0.000000
vt 4.052684 -5.081905 0.000000
vt 4.340067 -5.492160 0.000000
vt 3.718758 -5.331120 0.000000
vt 3.990226 -5.751356 0.000000
vt 3.369552 -5.558428 0.000000
vt 3.624947 -5.988302 0.000000
vt 3.245645 -6.202080 0.000000
vt 3.006499 -5.762895 0.000000
vt 2.853785 -6.391863 0.000000
vt 2.631092 -5.943682 0.000000
vt 2.450885 -6.556917 0.000000
vt 2.244873 -6.100045 0.000000
vt 2.038503 -6.696604 0.000000
vt 1.849429 -6.231341 0.000000
vt 1.618234 -6.810383 0.000000
vt 1.446386 -6.337031 0.000000
vt 1.191705 -6.897814 0.000000
vt 1.037399 -6.416682 0.000000
vt 0.760565 -6.958559 0.000000
vt 0.624150 -6.469964 0.000000
vt 0.326483 -6.992382 0.000000
vt 0.208335 -6.496660 0.000000
vt -0.108863 -6.999153 0.000000
vt -0.208335 -6.496660 0.000000
vt -0.543787 -6.978846 0.000000
vt -0.624150 -6.469964 0.000000
vt -0.976607 -6.931539 0.000000
vt -1.037399 -6.416682 0.000000
vt -1.405650 -6.857416 0.000000
vt -1.446386 -6.337031 0.000000
vt -1.829253 -6.756762 0.000000
vt -1.849429 -6.231341 0.000000
vt -2.245780 -6.629968 0.000000
vt -2.244873 -6.100045 0.000000
vt -2.653619 -6.477523 0.000000
vt -2.631092 -5.943682 0.000000
vt -3.051191 -6.300019 0.000000
vt -3.006499 -5.762895 0.000000
vt -3.436959 -6.098140 0.000000
vt -3.369552 -5.558428 0.000000
vt -3.809429 -5.872670 0.000000
vt -3.718758 -5.331120 0.000000
vt -4.167162 -5.624479 0.000000
vt -4.052684 -5.081905 0.000000
vt -4.508773 -5.354528 0.000000
vt -4.369956 -4.811807 0.000000
vt -4.832940 -5.063861 0.000000
vt -4.669271 -4.521937 0.000000
vt -5.138410 -4.753603 0.000000
vt -4.949399 -4.213485 0.000000
vt -5.424000 -4.424955 0.000000
vt -5.209189 -3.887718 0.000000
vt -5.688605 -4.079187 0.000000
vt -5.447573 -3.545977 0.000000
vt -5.931203 -3.717638 0.000000
vt -5.663572 -3.189664 0.000000
vt -6.150854 -3.341706 0.000000
vt -5.856298 -2.820244 0.000000
vt -6.346708 -2.952845 0.000000
vt -6.024959 -2.439236 0.000000
vt -6.518008 -2.552561 0.000000
vt -6.168862 -2.048203 0.000000
vt -6.664092 -2.142401 0.000000
vt -6.287417 -1.648755 0.000000
vt -6.784393 -1.723952 0.000000
vt -6.380135 -1.242531 0.000000
vt -6.878447 -1.298834 0.000000
vt -6.446635 -0.831202 0.000000
vt -6.945889 -0.868691 0.000000
vt -6.486645 -0.416456 0.000000
vn 0.000000 0.000000 1.000000
vn 0.000000 0.000000 1.000000
vn 0.000000 0.000000 1.000000
vn 0.000000 0.000000 1.000000
vn 0.000000 0.000000 1.000000
vn 0.000000 0.000000 1.000000
vn 0.000000 0.000000 1.000000
vn 0.000000 0.000000 1.000000
vn 0.000000 0.000000 1.000000
vn 0.000000 0.000000 1.000000
vn 0.000000 0.000000 1.000000
vn 0.000000 0.000000 1.000000
vn 0.000000 0.000000 1.000000
vn 0.000000 0.000000 1.000000
vn 0.000000 0.000000 1.000000
vn 0.000000 0.000000 1.000000
vn 0.000000 0.000000 1.000000
vn 0.000000 0.000000 1.000000
vn 0.000000 0.000000 1.000000
vn 0.000000 0.000000 1.000000
vn 0.000000 0.000000 1.000000
vn 0.000000 0.000000 1.000000
vn 0.000000 0.000000 1.000000
vn 0.000000 0.000000 1.000000
vn 0.000000 0.000000 1.000000
vn 0.000000 0.000000 1.000000
vn 0.000000 0.000000 1.000000
vn 0.000000 0.000000 1.000000
vn 0.000000 0.000000 1.000000
vn 0.000000 0.000000 1.000000
vn 0.000000 0.000000 1.000000
vn 0.000000 0.000000 1.000000
vn 0.000000 0.000000 1.000000
vn 0.000000 0.000000 1.000000
vn 0.000000 0.000000 1.000000
vn 0.000000 0.000000 1.000000
vn 0.000000 0.000000 1.000000
vn 0.000000 0.000000 1.000000
vn 0.000000 0.000000 1.000000
vn 0.000000 0.000000 1.000000
vn 0.000000 0.000000 1.000000
vn 0.000000 0.000000 1.000000
vn 0.000000 0.000000 1.000000
vn 0.000000 0.000000 1.000000
vn 0.000000 0.000000 1.000000
vn 0.000000 0.000000 1.000000
vn 0.000000 0.000000 1.000000
vn 0.000000 0.000000 1.000000
vn 0.000000 0.000000 1.000000
vn 0.000000 0.000000 1.000000
vn 0.000000 0.000000 1.000000
vn 0.000000 0.000000 1.000000
vn 0.000000 0.000000 1.000000
vn 0.000000 0.000000 1.000000
vn 0.000000 0.000000 1.000000
vn 0.000000 0.000000 1.000000
vn 0.000000 0.000000 1.000000
vn 0.000000 0.000000 1.000000
vn 0.000000 0.000000 1.000000
vn 0.000000 0.000000 1.000000
vn 0.000000 0.000000 1.000000
vn 0.000000 0.000000 1.000000
vn 0.000000 0.000000 1.000000
vn 0.000000 0.000000 1.000000
vn 0.000000 0.000000 1.000000
vn 0.000000 0.000000 1.000000
vn 0.000000 0.000000 1.000000
vn 0.000000 0.000000 1.000000
vn 0.000000 0.000000 1.000000
vn 0.000000 0.000000 1.000000
vn 0.000000 0.000000 1.000000
vn 0.000000 0.000000 1.000000
vn 0.000000 0.000000 1.000000
vn 0.000000 0.000000 1.000000
vn 0.000000 0.000000 1.000000
vn 0.000000 0.000000 1.000000
vn 0.000000 0.000000 1.000000
vn 0.000000 0.000000 1.000000
vn 0.000000 0.000000 1.000000
vn 0.000000 0.000000 1.000000
vn 0.000000 0.000000 1.000000
vn 0.000000 0.000000 1.000000
vn 0.000000 0.000000 1.000000
vn 0.000000 0.000000 1.000000
vn 0.000000 0.000000 1.000000
vn 0.000000 0.000000 1.000000
vn 0.000000 0.000000 1.000000
vn 0.000000 0.000000 1.000000
vn 0.000000 0.000000 1.000000
vn 0.000000 0.000000 1.000000
vn 0.000000 0.000000 1.000000
vn 0.000000 0.000000 1.000000
vn 0.000000 0.000000 1.000000
vn 0.000000 0.000000 1.000000
vn 0.000000 0.000000 1.000000
vn 0.000000 0.000000 1.000000
vn 0.000000 0.000000 1.000000
vn 0.000000 0.000000 1.000000
vn -0.000000 -0.000000 -1.000000
vn -0.000000 -0.000000 -1.000000
vn -0.000000 -0.000000 -1.000000
vn -0.000000 -0.000000 -1.000000
vn -0.000000 -0.000000 -1.000000
vn -0.000000 -0.000000 -1.000000
vn -0.000000 -0.000000 -1.000000
vn -0.000000 -0.000000 -1.000000
vn -0.000000 -0.000000 -1.000000
vn -0.000000 -0.000000 -1.000000
vn -0.000000 -0.000000 -1.000000
vn -0.000000 -0.000000 -1.000000
vn -0.000000 -0.000000 -1.000000
vn -0.000000 -0.000000 -1.000000
vn -0.000000 -0.000000 -1.000000
vn -0.000000 -0.000000 -1.000000
vn -0.000000 -0.000000 -1.000000
vn -0.000000 -0.000000 -1.000000
vn -0.000000 -0.000000 -1.000000
vn -0.000000 -0.000000 -1.000000
vn -0.000000 -0.000000 -1.000000
vn -0.000000 -0.000000 -1.000000
vn -0.000000 -0.000000 -1.000000
vn -0.000000 -0.000000 -1.000000
vn -0.000000 -0.000000 -1.000000
vn -0.000000 -0.000000 -1.000000
vn -0.000000 -0.000000 -1.000000
vn -0.000000 -0.000000 -1.000000
vn -0.000000 -0.000000 -1.000000
vn -0.000000 -0.000000 -1.000000
vn -0.000000 -0.000000 -1.000000
vn -0.000000 -0.000000 -1.000000
vn -0.000000 -0.000000 -1.000000
vn -0.000000 -0.000000 -1.000000
vn -0.000000 -0.000000 -1.000000
vn -0.000000 -0.000000 -1.000000
vn -0.000000 -0.000000 -1.000000
vn -0.000000 -0.000000 -1.000000
vn -0.000000 -0.000000 -1.000000
vn -0.000000 -0.000000 -1.000000
vn -0.000000 -0.000000 -1.000000
vn -0.000000 -0.000000 -1.000000
vn -0.000000 -0.000000 -1.000000
vn -0.000000 -0.000000 -1.000000
vn -0.000000 -0.000000 -1.000000
vn -0.000000 -0.000000 -1.000000
vn -0.000000 -0.000000 -1.000000
vn -0.000000 -0.000000 -1.000000
vn -0.000000 -0.000000 -1.000000
vn -0.000000 -0.000000 -1.000000
vn -0.000000 -0.000000 -1.000000
vn -0.000000 -0.000000 -1.000000
vn -0.000000 -0.000000 -1.000000
vn -0.000000 -0.000000 -1.000000
vn -0.000000 -0.000000 -1.000000
vn -0.000000 -0.000000 -1.000000
vn -0.000000 -0.000000 -1.000000
vn -0.000000 -0.000000 -1.000000
vn -0.000000 -0.000000 -1.000000
vn -0.000000 -0.000000 -1.000000
vn -0.000000 -0.000000 -1.000000
vn -0.000000 -0.000000 -1.000000
vn -0.000000 -0.000000 -1.000000
vn -0.000000 -0.000000 -1.000000
vn -0.000000 -0.000000 -1.000000
vn -0.000000 -0.000000 -1.000000
vn -0.000000 -0.000000 -1.000000
vn -0.000000 -0.000000 -1.000000
vn -0.000000 -0.000000 -1.000000
vn -0.000000 -0.000000 -1.000000
vn -0.000000 -0.000000 -1.000000
vn -0.000000 -0.000000 -1.000000
vn -0.000000 -0.000000 -1.000000
vn -0.000000 -0.000000 -1.000000
vn -0.000000 -0.000000 -1.000000
vn -0.000000 -0.000000 -1.000000
vn -0.000000 -0.000000 -1.000000
vn -0.000000 -0.000000 -1.000000
vn -0.000000 -0.000000 -1.000000
vn -0.000000 -0.000000 -1.000000
vn -0.000000 -0.000000 -1.000000
vn -0.000000 -0.000000 -1.000000
vn -0.000000 -0.000000 -1.000000
vn -0.000000 -0.000000 -1.000000
vn -0.000000 -0.000000 -1.000000
vn -0.000000 -0.000000 -1.000000
vn -0.000000 -0.000000 -1.000000
vn -0.000000 -0.000000 -1.000000
vn -0.000000 -0.000000 -1.000000
vn -0.000000 -0.000000 -1.000000
vn -0.000000 -0.000000 -1.000000
vn -0.000000 -0.000000 -1.000000
vn -0.000000 -0.000000 -1.000000
vn -0.000000 -0.000000 -1.000000
vn -0.000000 -0.000000 -1.000000
vn -0.000000 -0.000000 -1.000000
vn -0.000000 -0.000000 -1.000000
vn -0.000000 -0.000000 -1.000000
vn -0.000000 -0.000000 -1.000000
vn -0.000000 -0.000000 -1.000000
vn -0.000000 -0.000000 -1.000000
vn 0.997945 0.064070 -0.000000
vn 0.997945 0.064070 -0.000000
vn 1.000000 0.000000 -0.000000
vn 1.000000 0.000000 -0.000000
vn 0.997945 -0.064070 0.000000
vn 0.997945 -0.064070 0.000000
vn 0.991790 -0.127877 0.000000
vn 0.991790 0.127877 -0.000000
vn 0.991790 0.127877 -0.000000
vn 0.981559 0.191159 -0.000000
vn 0.981559 0.191159 -0.000000
vn 0.967295 0.253655 -0.000000
vn 0.967295 0.253655 -0.000000
vn 0.949056 0.315108 -0.000000
vn 0.949056 0.315108 -0.000000
vn 0.926917 0.375267 -0.000000
vn 0.926917 0.375267 -0.000000
vn 0.900969 0.433884 -0.000000
vn 0.900969 0.433884 -0.000000
vn 0.871319 0.490718 -0.000000
vn 0.871319 0.490718 -0.000000
vn 0.838088 0.545535 -0.000000
vn 0.838088 0.545535 -0.000000
vn 0.801414 0.598111 -0.000000
vn 0.801414 0.598111 -0.000000
vn 0.761446 0.648228 -0.000000
vn 0.761446 0.648228 -0.000000
vn 0.718349 0.695683 -0.000000
vn 0.718349 0.695683 -0.000000
vn 0.672301 0.740278 -0.000000
vn 0.672301 0.740278 -0.000000
vn 0.623490 0.781831 -0.000000
vn 0.623490 0.781831 -0.000000
vn 0.572117 0.820172 -0.000000
vn 0.572117 0.820172 -0.000000
vn 0.518393 0.855143 -0.000000
vn 0.518393 0.855143 -0.000000
vn 0.462538 0.886599 -0.000000
vn 0.462538 0.886599 -0.000000
vn 0.404783 0.914413 -0.000000
vn 0.404783 0.914413 -0.000000
vn 0.345365 0.938468 -0.000000
vn 0.345365 0.938468 -0.000000
vn 0.284528 0.958668 -0.000000
vn 0.284528 0.958668 -0.000000
vn 0.222521 0.974928 -0.000000
vn 0.222521 0.974928 -0.000000
vn 0.159600 0.987182 -0.000000
vn 0.159600 0.987182 -0.000000
vn 0.096023 0.995379 -0.000000
vn 0.096023 0.995379 -0.000000
vn 0.032052 0.999486 -0.000000
vn 0.032052 0.999486 -0.000000
vn -0.032052 0.999486 0.000000
vn -0.032052 0.999486 0.000000
vn -0.096023 0.995379 0.000000
vn -0.096023 0.995379 0.000000
vn -0.159600 0.987182 0.000000
vn -0.159600 0.987182 0.000000
vn -0.222521 0.974928 0.000000
vn -0.222521 0.974928 0.000000
vn -0.284528 0.958668 0.000000
vn -0.284528 0.958668 0.000000
vn -0.345365 0.938468 0.000000
vn -0.345365 0.938468 0.000000
vn -0.404783 0.914413 0.000000
vn -0.404783 0.914413 0.000000
vn -0.462538 0.886599 0.000000
vn -0.462538 0.886599 0.000000
vn -0.518393 0.855143 0.000000
vn -0.518393 0.855143 0.000000
vn -0.572117 0.820172 0.000000
vn -0.572117 0.820172 0.000000
vn -0.623490 0.781831 0.000000
vn -0.623490 0.781831 0.000000
vn -0.672301 0.740278 0.000000
vn -0.672301 0.740278 0.000000
vn -0.718349 0.695683 0.000000
vn -0.718349 0.695683 0.000000
vn -0.761446 0.648228 0.000000
vn -0.761446 0.648228 0.000000
vn -0.801414 0.598111 0.000000
vn -0.801414 0.598111 0.000000
vn -0.838088 0.545535 0.000000
vn -0.838088 0.545535 0.000000
vn -0.871319 0.490718 0.000000
vn -0.871319 0.490718 0.000000
vn -0.900969 0.433884 0.000000
vn -0.900969 0.433884 0.000000
vn -0.926917 0.375267 0.000000
vn -0.926917 0.375267 0.000000
vn -0.949056 0.315108 0.000000
vn -0.949056 0.315108 0.000000
vn -0.967295 0.253655 0.000000
vn -0.967295 0.253655 0.000000
vn -0.981559 0.191159 0.000000
vn -0.981559 0.191159 0.000000
vn -0.991790 0.127877 0.000000
vn -0.991790 0.127877 0.000000
vn -0.997945 0.064070 0.000000
vn -0.997945 0.064070 0.000000
vn -1.000000 0.000000 0.000000
vn -1.000000 0.000000 0.000000
vn -0.997945 -0.064070 0.000000
vn -0.997945 -0.064070 0.000000
vn -0.991790 -0.127877 0.000000
vn -0.991790 -0.127877 0.000000
vn -0.981559 -0.191159 0.000000
vn -0.981559 -0.191159 0.000000
vn -0.967295 -0.253655 0.000000
vn -0.967295 -0.253655 0.000000
vn -0.949056 -0.315108 0.000000
vn -0.949056 -0.315108 0.000000
vn -0.926917 -0.375267 0.000000
vn -0.926917 -0.375267 0.000000
vn -0.900969 -0.433884 0.000000
vn -0.900969 -0.433884 0.000000
vn -0.871319 -0.490718 0.000000
vn -0.871319 -0.490718 0.000000
vn -0.838088 -0.545535 0.000000
vn -0.838088 -0.545535 0.000000
vn -0.801414 -0.598111 0.000000
vn -0.801414 -0.598111 0.000000
vn -0.761446 -0.648228 0.000000
vn -0.761446 -0.648228 0.000000
vn -0.718349 -0.695683 0.000000
vn -0.718349 -0.695683 0.000000
vn -0.672301 -0.740278 0.000000
vn -0.672301 -0.740278 0.000000
vn -0.623490 -0.781831 0.000000
vn -0.623490 -0.781831 0.000000
vn -0.572117 -0.820172 0.000000
vn -0.572117 -0.820172 0.000000
vn -0.518393 -0.855143 0.000000
vn -0.518393 -0.855143 0.000000
vn -0.462538 -0.886599 0.000000
vn -0.462538 -0.886599 0.000000
vn -0.404783 -0.914413 0.000000
vn -0.404783 -0.914413 0.000000
vn -0.345365 -0.938468 0.000000
vn -0.345365 -0.938468 0.000000
vn -0.284528 -0.958668 0.000000
vn -0.284528 -0.958668 0.000000
vn -0.222521 -0.974928 0.000000
vn -0.222521 -0.974928 0.000000
vn -0.159600 -0.987182 0.000000
vn -0.159600 -0.987182 0.000000
vn -0.096023 -0.995379 0.000000
vn -0.096023 -0.995379 0.000000
vn -0.032052 -0.999486 0.000000
vn -0.032052 -0.999486 0.000000
vn 0.032052 -0.999486 0.000000
vn 0.032052 -0.999486 0.000000
vn 0.096023 -0.995379 0.000000
vn 0.096023 -0.995379 0.000000
vn 0.159600 -0.987182 0.000000
vn 0.159600 -0.987182 0.000000
vn 0.222521 -0.974928 0.000000
vn 0.222521 -0.974928 0.000000
vn 0.284528 -0.958668 0.000000
vn 0.284528 -0.958668 0.000000
vn 0.345365 -0.938468 0.000000
vn 0.345365 -0.938468 0.000000
vn 0.404783 -0.914413 0.000000
vn 0.404783 -0.914413 0.000000
vn 0.462538 -0.886599 0.000000
vn 0.462538 -0.886599 0.000000
vn 0.518393 -0.855143 0.000000
vn 0.518393 -0.855143 0.000000
vn 0.572117 -0.820172 0.000000
vn 0.572117 -0.820172 0.000000
vn 0.623490 -0.781831 0.000000
vn 0.623490 -0.781831 0.000000
vn 0.672301 -0.740278 0.000000
vn 0.672301 -0.740278 0.000000
vn 0.718349 -0.695683 0.000000
vn 0.718349 -0.695683 0.000000
vn 0.761446 -0.648228 0.000000
vn 0.761446 -0.648228 0.000000
vn 0.801414 -0.598111 0.000000
vn 0.801414 -0.598111 0.000000
vn 0.838088 -0.545535 0.000000
vn 0.838088 -0.545535 0.000000
vn 0.871319 -0.490718 0.000000
vn 0.871319 -0.490718 0.000000
vn 0.900969 -0.433884 0.000000
vn 0.900969 -0.433884 0.000000
vn 0.926917 -0.375267 0.000000
vn 0.926917 -0.375267 0.000000
vn 0.949056 -0.315108 0.000000
vn 0.949056 -0.315108 0.000000
vn 0.967295 -0.253655 0.000000
vn 0.967295 -0.253655 0.000000
vn 0.981559 -0.191159 0.000000
vn 0.981559 -0.191159 0.000000
vn 0.991790 -0.127877 0.000000
vn -0.998066 -0.062170 0.000000
vn -0.998066 -0.062170 0.000000
vn -1.000000 -0.000000 0.000000
vn -1.000000 -0.000000 0.000000
vn -0.998066 0.062170 -0.000000
vn -0.998066 0.062170 -0.000000
vn -0.992270 0.124099 -0.000000
vn -0.992270 0.124099 -0.000000
vn -0.982635 0.185548 -0.000000
vn -0.982635 0.185548 -0.000000
vn -0.969199 0.246279 -0.000000
vn -0.969199 0.246279 -0.000000
vn -0.952013 0.306057 -0.000000
vn -0.952013 0.306057 -0.000000
vn -0.931144 0.364652 -0.000000
vn -0.931144 0.364652 -0.000000
vn -0.906673 0.421835 -0.000000
vn -0.906673 0.421835 -0.000000
vn -0.878693 0.477387 -0.000000
vn -0.878693 0.477387 -0.000000
vn -0.847315 0.531091 -0.000000
vn -0.847315 0.531091 -0.000000
vn -0.812658 0.582741 -0.000000
vn -0.812658 0.582741 -0.000000
vn -0.774857 0.632136 -0.000000
vn -0.774857 0.632136 -0.000000
vn -0.734059 0.679086 -0.000000
vn -0.734059 0.679086 -0.000000
vn -0.690420 0.723409 -0.000000
vn -0.690420 0.723409 -0.000000
vn -0.644110 0.764933 -0.000000
vn -0.644110 0.764933 -0.000000
vn -0.595309 0.803497 -0.000000
vn -0.595309 0.803497 -0.000000
vn -0.544204 0.838953 -0.000000
vn -0.544204 0.838953 -0.000000
vn -0.490994 0.871163 -0.000000
vn -0.490994 0.871163 -0.000000
vn -0.435884 0.900003 -0.000000
vn -0.435884 0.900003 -0.000000
vn -0.379088 0.925360 -0.000000
vn -0.379088 0.925360 -0.000000
vn -0.320826 0.947138 -0.000000
vn -0.320826 0.947138 -0.000000
vn -0.261322 0.965252 -0.000000
vn -0.261322 0.965252 -0.000000
vn -0.200807 0.979631 -0.000000
vn -0.200807 0.979631 -0.000000
vn -0.139515 0.990220 -0.000000
vn -0.139515 0.990220 -0.000000
vn -0.077684 0.996978 -0.000000
vn -0.077684 0.996978 -0.000000
vn -0.015552 0.999879 -0.000000
vn -0.015552 0.999879 -0.000000
vn 0.046640 0.998912 -0.000000
vn 0.046640 0.998912 -0.000000
vn 0.108652 0.994080 -0.000000
vn 0.108652 0.994080 -0.000000
vn 0.170244 0.985402 -0.000000
vn 0.170244 0.985402 -0.000000
vn 0.231176 0.972912 -0.000000
vn 0.231176 0.972912 -0.000000
vn 0.291215 0.956658 -0.000000
vn 0.291215 0.956658 -0.000000
vn 0.350126 0.936702 -0.000000
vn 0.350126 0.936702 -0.000000
vn 0.407684 0.913123 -0.000000
vn 0.407684 0.913123 -0.000000
vn 0.463664 0.886011 -0.000000
vn 0.463664 0.886011 -0.000000
vn 0.517850 0.855472 -0.000000
vn 0.517850 0.855472 -0.000000
vn 0.570032 0.821622 -0.000000
vn 0.570032 0.821622 -0.000000
vn 0.620010 0.784594 -0.000000
vn 0.620010 0.784594 -0.000000
vn 0.667588 0.744531 -0.000000
vn 0.667588 0.744531 -0.000000
vn 0.712584 0.701587 -0.000000
vn 0.712584 0.701587 -0.000000
vn 0.754823 0.655929 -0.000000
vn 0.754823 0.655929 -0.000000
vn 0.794142 0.607733 -0.000000
vn 0.794142 0.607733 -0.000000
vn 0.830388 0.557186 -0.000000
vn 0.830388 0.557186 -0.000000
vn 0.863422 0.504483 -0.000000
vn 0.863422 0.504483 -0.000000
vn 0.893115 0.449828 -0.000000
vn 0.893115 0.449828 -0.000000
vn 0.919353 0.393434 -0.000000
vn 0.919353 0.393434 -0.000000
vn 0.942034 0.335517 -0.000000
vn 0.942034 0.335517 -0.000000
vn 0.961071 0.276302 -0.000000
vn 0.961071 0.276302 -0.000000
vn 0.976389 0.216018 -0.000000
vn 0.976389 0.216018 -0.000000
vn 0.987930 0.154898 -0.000000
vn 0.987930 0.154898 -0.000000
vn 0.995649 0.093179 -0.000000
vn 0.995649 0.093179 -0.000000
vn 0.999516 0.031100 -0.000000
vn 0.999516 0.031100 -0.000000
vn 0.999516 -0.031100 -0.000000
vn 0.999516 -0.031100 -0.000000
vn 0.995649 -0.093179 -0.000000
vn 0.995649 -0.093179 -0.000000
vn 0.987930 -0.154898 -0.000000
vn 0.987930 -0.154898 -0.000000
vn 0.976389 -0.216018 -0.000000
vn 0.976389 -0.216018 -0.000000
vn 0.961071 -0.276302 -0.000000
vn 0.961071 -0.276302 -0.000000
vn 0.942034 -0.335517 -0.000000
vn 0.942034 -0.335517 -0.000000
vn 0.919353 -0.393434 -0.000000
vn 0.919353 -0.393434 -0.000000
vn 0.893115 -0.449828 -0.000000
vn 0.893115 -0.449828 -0.000000
vn 0.863422 -0.504483 -0.000000
vn 0.863422 -0.504483 -0.000000
vn 0.830388 -0.557186 -0.000000
vn 0.830388 -0.557186 -0.000000
vn 0.794142 -0.607733 -0.000000
vn 0.794142 -0.607733 -0.000000
vn 0.754823 -0.655929 -0.000000
vn 0.754823 -0.655929 -0.000000
vn 0.712584 -0.701587 -0.000000
vn 0.712584 -0.701587 -0.000000
vn 0.667588 -0.744531 -0.000000
vn 0.667588 -0.744531 -0.000000
vn 0.620010 -0.784594 -0.000000
vn 0.620010 -0.784594 -0.000000
vn 0.570032 -0.821622 -0.000000
vn 0.570032 -0.821622 -0.000000
vn 0.517850 -0.855472 -0.000000
vn 0.517850 -0.855472 -0.000000
vn 0.463664 -0.886011 -0.000000
vn 0.463664 -0.886011 -0.000000
vn 0.407684 -0.913123 -0.000000
vn 0.407684 -0.913123 -0.000000
vn 0.350126 -0.936702 -0.000000
vn 0.350126 -0.936702 -0.000000
vn 0.291215 -0.956658 -0.000000
vn 0.291215 -0.956658 -0.000000
vn 0.231176 -0.972912 -0.000000
vn 0.231176 -0.972912 -0.000000
vn 0.170244 -0.985402 -0.000000
vn 0.170244 -0.985402 -0.000000
vn 0.108652 -0.994080 -0.000000
vn 0.108652 -0.994080 -0.000000
vn 0.046640 -0.998912 -0.000000
vn 0.046640 -0.998912 -0.000000
vn -0.015552 -0.999879 0.000000
vn -0.015552 -0.999879 0.000000
vn -0.077684 -0.996978 0.000000
vn -0.077684 -0.996978 0.000000
vn -0.139515 -0.990220 0.000000
vn -0.139515 -0.990220 0.000000
vn -0.200807 -0.979631 0.000000
vn -0.200807 -0.979631 0.000000
vn -0.261322 -0.965252 0.000000
vn -0.261322 -0.965252 0.000000
vn -0.320826 -0.947138 0.000000
vn -0.320826 -0.947138 0.000000
vn -0.379088 -0.925360 0.000000
vn -0.379088 -0.925360 0.000000
vn -0.435884 -0.900003 0.000000
vn -0.435884 -0.900003 0.000000
vn -0.490994 -0.871163 0.000000
vn -0.490994 -0.871163 0.000000
vn -0.544204 -0.838953 0.000000
vn -0.544204 -0.838953 0.000000
vn -0.595309 -0.803497 0.000000
vn -0.595309 -0.803497 0.000000
vn -0.644110 -0.764933 0.000000
vn -0.644110 -0.764933 0.000000
vn -0.690420 -0.723409 0.000000
vn -0.690420 -0.723409 0.000000
vn -0.734059 -0.679086 0.000000
vn -0.734059 -0.679086 0.000000
vn -0.774857 -0.632136 0.000000
vn -0.774857 -0.632136 0.000000
vn -0.812658 -0.582741 0.000000
vn -0.812658 -0.582741 0.000000
vn -0.847315 -0.531091 0.000000
vn -0.847315 -0.531091 0.000000
vn -0.878693 -0.477387 0.000000
vn -0.878693 -0.477387 0.000000
vn -0.906673 -0.421835 0.000000
vn -0.906673 -0.421835 0.000000
vn -0.931144 -0.364652 0.000000
vn -0.931144 -0.364652 0.000000
vn -0.952013 -0.306057 0.000000
vn -0.952013 -0.306057 0.000000
vn -0.969199 -0.246279 0.000000
vn -0.969199 -0.246279 0.000000
vn -0.982635 -0.185548 0.000000
vn -0.982635 -0.185548 0.000000
vn -0.992270 -0.124099 0.000000
vn -0.992270 -0.124099 0.000000
vn 0.000000 0.000000 1.000000
vn 0.000000 0.000000 1.000000
vn 0.000000 0.000000 1.000000
vn 0.000000 0.000000 1.000000
vn 0.000000 0.000000 1.000000
vn 0.000000 0.000000 1.000000
vn 0.000000 0.000000 1.000000
vn 0.000000 0.000000 1.000000
vn 0.000000 0.000000 1.000000
vn 0.000000 0.000000 1.000000
vn 0.000000 0.000000 1.000000
vn 0.000000 0.000000 1.000000
vn 0.000000 0.000000 1.000000
vn 0.000000 0.000000 1.000000
vn 0.000000 0.000000 1.000000
vn 0.000000 0.000000 1.000000
vn 0.000000 0.000000 1.000000
vn 0.000000 0.000000 1.000000
vn 0.000000 0.000000 1.000000
vn 0.000000 0.000000 1.000000
vn 0.000000 0.000000 1.000000
vn 0.000000 0.000000 1.000000
vn 0.000000 0.000000 1.000000
vn 0.000000 0.000000 1.000000
vn 0.000000 0.000000 1.000000
vn 0.000000 0.000000 1.000000
vn 0.000000 0.000000 1.000000
vn 0.000000 0.000000 1.000000
vn 0.000000 0.000000 1.000000
vn 0.000000 0.000000 1.000000
vn 0.000000 0.000000 1.000000
vn 0.000000 0.000000 1.000000
vn 0.000000 0.000000 1.000000
vn 0.000000 0.000000 1.000000
vn 0.000000 0.000000 1.000000
vn 0.000000 0.000000 1.000000
vn 0.000000 0.000000 1.000000
vn 0.000000 0.000000 1.000000
vn 0.000000 0.000000 1.000000
vn 0.000000 0.000000 1.000000
vn 0.000000 0.000000 1.000000
vn 0.000000 0.000000 1.000000
vn 0.000000 0.000000 1.000000
vn 0.000000 0.000000 1.000000
vn 0.000000 0.000000 1.000000
vn 0.000000 0.000000 1.000000
vn 0.000000 0.000000 1.000000
vn 0.000000 0.000000 1.000000
vn 0.000000 0.000000 1.000000
vn 0.000000 0.000000 1.000000
vn 0.000000 0.000000 1.000000
vn 0.000000 0.000000 1.000000
vn 0.000000 0.000000 1.000000
vn 0.000000 0.000000 1.000000
vn 0.000000 0.000000 1.000000
vn 0.000000 0.000000 1.000000
vn 0.000000 0.000000 1.000000
vn 0.000000 0.000000 1.000000
vn 0.000000 0.000000 1.000000
vn 0.000000 0.000000 1.000000
vn 0.000000 0.000000 1.000000
vn 0.000000 0.000000 1.000000
vn 0.000000 0.000000 1.000000
vn 0.000000 0.000000 1.000000
vn 0.000000 0.000000 1.000000
vn 0.000000 0.000000 1.000000
vn 0.000000 0.000000 1.000000
vn 0.000000 0.000000 1.000000
vn 0.000000 0.000000 1.000000
vn 0.000000 0.000000 1.000000
vn 0.000000 0.000000 1.000000
vn 0.000000 0.000000 1.000000
vn 0.000000 0.000000 1.000000
vn 0.000000 0.000000 1.000000
vn 0.000000 0.000000 1.000000
vn 0.000000 0.000000 1.000000
vn 0.000000 0.000000 1.000000
vn 0.000000 0.000000 1.000000
vn 0.000000 0.000000 1.000000
vn 0.000000 0.000000 1.000000
vn 0.000000 0.000000 1.000000
vn 0.000000 0.000000 1.000000
vn 0.000000 0.000000 1.000000
vn 0.000000 0.000000 1.000000
vn 0.000000 0.000000 1.000000
vn 0.000000 0.000000 1.000000
vn 0.000000 0.000000 1.000000
vn 0.000000 0.000000 1.000000
vn 0.000000 0.000000 1.000000
vn 0.000000 0.000000 1.000000
vn 0.000000 0.000000 1.000000
vn 0.000000 0.000000 1.000000
vn 0.000000 0.000000 1.000000
vn 0.000000 0.000000 1.000000
vn 0.000000 0.000000 1.000000
vn 0.000000 0.000000 1.000000
vn 0.000000 0.000000 1.000000
vn 0.000000 0.000000 1.000000
vn 0.000000 0.000000 1.000000
vn 0.000000 0.000000 1.000000
vn 0.000000 0.000000 1.000000
vn 0.000000 0.000000 1.000000
vn 0.000000 0.000000 1.000000
vn 0.000000 0.000000 1.000000
vn 0.000000 0.000000 1.000000
vn 0.000000 0.000000 1.000000
vn 0.000000 0.000000 1.000000
vn 0.000000 0.000000 1.000000
vn 0.000000 0.000000 1.000000
vn 0.000000 0.000000 1.000000
vn 0.000000 0.000000 1.000000
vn 0.000000 0.000000 1.000000
vn 0.000000 0.000000 1.000000
vn 0.000000 0.000000 1.000000
vn 0.000000 0.000000 1.000000
vn 0.000000 0.000000 1.000000
vn 0.000000 0.000000 1.000000
vn 0.000000 0.000000 1.000000
vn 0.000000 0.000000 1.000000
vn 0.000000 0.000000 1.000000
vn 0.000000 0.000000 1.000000
vn 0.000000 0.000000 1.000000
vn 0.000000 0.000000 1.000000
vn 0.000000 0.000000 1.000000
vn 0.000000 0.000000 1.000000
vn 0.000000 0.000000 1.000000
vn 0.000000 0.000000 1.000000
vn 0.000000 0.000000 1.000000
vn 0.000000 0.000000 1.000000
vn 0.000000 0.000000 1.000000
vn 0.000000 0.000000 1.000000
vn 0.000000 0.000000 1.000000
vn 0.000000 0.000000 1.000000
vn 0.000000 0.000000 1.000000
vn 0.000000 0.000000 1.000000
vn 0.000000 0.000000 1.000000
vn 0.000000 0.000000 1.000000
vn 0.000000 0.000000 1.000000
vn 0.000000 0.000000 1.000000
vn 0.000000 0.000000 1.000000
vn 0.000000 0.000000 1.000000
vn 0.000000 0.000000 1.000000
vn 0.000000 0.000000 1.000000
vn 0.000000 0.000000 1.000000
vn 0.000000 0.000000 1.000000
vn 0.000000 0.000000 1.000000
vn 0.000000 0.000000 1.000000
vn 0.000000 0.000000 1.000000
vn 0.000000 0.000000 1.000000
vn 0.000000 0.000000 1.000000
vn 0.000000 0.000000 1.000000
vn 0.000000 0.000000 1.000000
vn 0.000000 0.000000 1.000000
vn 0.000000 0.000000 1.000000
vn 0.000000 0.000000 1.000000
vn 0.000000 0.000000 1.000000
vn 0.000000 0.000000 1.000000
vn 0.000000 0.000000 1.000000
vn 0.000000 0.000000 1.000000
vn 0.000000 0.000000 1.000000
vn 0.000000 0.000000 1.000000
vn 0.000000 0.000000 1.000000
vn 0.000000 0.000000 1.000000
vn 0.000000 0.000000 1.000000
vn 0.000000 0.000000 1.000000
vn 0.000000 0.000000 1.000000
vn 0.000000 0.000000 1.000000
vn 0.000000 0.000000 1.000000
vn 0.000000 0.000000 1.000000
vn 0.000000 0.000000 1.000000
vn 0.000000 0.000000 1.000000
vn 0.000000 0.000000 1.000000
vn 0.000000 0.000000 1.000000
vn 0.000000 0.000000 1.000000
vn 0.000000 0.000000 1.000000
vn 0.000000 0.000000 1.000000
vn 0.000000 0.000000 1.000000
vn 0.000000 0.000000 1.000000
vn 0.000000 0.000000 1.000000
vn 0.000000 0.000000 1.000000
vn 0.000000 0.000000 1.000000
vn 0.000000 0.000000 1.000000
vn 0.000000 0.000000 1.000000
vn 0.000000 0.000000 1.000000
vn 0.000000 0.000000 1.000000
vn 0.000000 0.000000 1.000000
vn 0.000000 0.000000 1.000000
vn 0.000000 0.000000 1.000000
vn 0.000000 0.000000 1.000000
vn 0.000000 0.000000 1.000000
vn 0.000000 0.000000 1.000000
vn 0.000000 0.000000 1.000000
vn 0.000000 0.000000 1.000000
vn 0.000000 0.000000 1.000000
vn 0.000000 0.000000 1.000000
vn 0.000000 0.000000 1.000000
vn 0.000000 0.000000 1.000000
vn 0.000000 0.000000 1.000000
vn 0.000000 0.000000 1.000000
usemtl 강철_-_새틴
f 2/1/1 49/2/2 1/3/3
f 1/3/3 49/2/2 50/4/4
f 1/3/3 50/4/4 98/5/5
f 98/5/5 50/4/4 51/6/6
f 98/5/5 51/6/6 97/7/7
f 97/7/7 51/6/6 52/8/8
f 97/7/7 52/8/8 96/9/9
f 96/9/9 52/8/8 53/10/10
f 96/9/9 53/10/10 95/11/11
f 95/11/11 53/10/10 54/12/12
f 95/11/11 54/12/12 94/13/13
f 94/13/13 54/12/12 55/14/14
f 94/13/13 55/14/14 93/15/15
f 93/15/15 55/14/14 56/16/16
f 93/15/15 56/16/16 92/17/17
f 92/17/17 56/16/16 57/18/18
f 92/17/17 57/18/18 91/19/19
f 91/19/19 57/18/18 58/20/20
f 91/19/19 58/20/20 90/21/21
f 90/21/21 58/20/20 59/22/22
f 90/21/21 59/22/22 89/23/23
f 89/23/23 59/22/22 60/24/24
f 89/23/23 60/24/24 88/25/25
f 88/25/25 60/24/24 61/26/26
f 88/25/25 61/26/26 87/27/27
f 87/27/27 61/26/26 62/28/28
f 87/27/27 62/28/28 86/29/29
f 86/29/29 62/28/28 63/30/30
f 86/29/29 63/30/30 85/31/31
f 85/31/31 63/30/30 64/32/32
f 85/31/31 64/32/32 84/33/33
f 84/33/33 64/32/32 65/34/34
f 84/33/33 65/34/34 83/35/35
f 83/35/35 65/34/34 66/36/36
f 83/35/35 66/36/36 82/37/37
f 82/37/37 66/36/36 67/38/38
f 82/37/37 67/38/38 81/39/39
f 81/39/39 67/38/38 68/40/40
f 81/39/39 68/40/40 80/41/41
f 80/41/41 68/40/40 69/42/42
f 80/41/41 69/42/42 79/43/43
f 79/43/43 69/42/42 70/44/44
f 79/43/43 70/44/44 78/45/45
f 78/45/45 70/44/44 71/46/46
f 78/45/45 71/46/46 77/47/47
f 77/47/47 71/46/46 72/48/48
f 77/47/47 72/48/48 76/49/49
f 76/49/49 72/48/48 73/50/50
f 76/49/49 73/50/50 75/51/51
f 75/51/51 73/50/50 74/52/52
f 49/2/2 2/1/1 48/53/53
f 48/53/53 2/1/1 3/54/54
f 48/53/53 3/54/54 47/55/55
f 47/55/55 3/54/54 4/56/56
f 47/55/55 4/56/56 46/57/57
f 46/57/57 4/56/56 5/58/58
f 46/57/57 5/58/58 45/59/59
f 45/59/59 5/58/58 6/60/60
f 45/59/59 6/60/60 44/61/61
f 44/61/61 6/60/60 7/62/62
f 44/61/61 7/62/62 43/63/63
f 43/63/63 7/62/62 8/64/64
f 43/63/63 8/64/64 42/65/65
f 42/65/65 8/64/64 9/66/66
f 42/65/65 9/66/66 41/67/67
f 41/67/67 9/66/66 10/68/68
f 41/67/67 10/68/68 40/69/69
f 40/69/69 10/68/68 11/70/70
f 40/69/69 11/70/70 39/71/71
f 39/71/71 11/70/70 12/72/72
f 39/71/71 12/72/72 38/73/73
f 38/73/73 12/72/72 13/74/74
f 38/73/73 13/74/74 37/75/75
f 37/75/75 13/74/74 14/76/76
f 37/75/75 14/76/76 36/77/77
f 36/77/77 14/76/76 15/78/78
f 36/77/77 15/78/78 35/79/79
f 35/79/79 15/78/78 16/80/80
f 35/79/79 16/80/80 34/81/81
f 34/81/81 16/80/80 17/82/82
f 34/81/81 17/82/82 33/83/83
f 33/83/83 17/82/82 18/84/84
f 33/83/83 18/84/84 32/85/85
f 32/85/85 18/84/84 19/86/86
f 32/85/85 19/86/86 31/87/87
f 31/87/87 19/86/86 20/88/88
f 31/87/87 20/88/88 30/89/89
f 30/89/89 20/88/88 21/90/90
f 30/89/89 21/90/90 29/91/91
f 29/91/91 21/90/90 22/92/92
f 29/91/91 22/92/92 28/93/93
f 28/93/93 22/92/92 23/94/94
f 28/93/93 23/94/94 27/95/95
f 27/95/95 23/94/94 24/96/96
f 27/95/95 24/96/96 26/97/97
f 26/97/97 24/96/96 25/98/98
f 100/99/99 149/100/100 99/101/101
f 99/101/101 149/100/100 150/102/102
f 99/101/101 150/102/102 199/103/103
f 199/103/103 150/102/102 151/104/104
f 199/103/103 151/104/104 198/105/105
f 198/105/105 151/104/104 152/106/106
f 198/105/105 152/106/106 197/107/107
f 197/107/107 152/106/106 153/108/108
f 197/107/107 153/108/108 196/109/109
f 196/109/109 153/108/108 154/110/110
f 196/109/109 154/110/110 195/111/111
f 195/111/111 154/110/110 155/112/112
f 195/111/111 155/112/112 194/113/113
f 194/113/113 155/112/112 156/114/114
f 194/113/113 156/114/114 193/115/115
f 193/115/115 156/114/114 157/116/116
f 193/115/115 157/116/116 192/117/117
f 192/117/117 157/116/116 158/118/118
f 192/117/117 158/118/118 191/119/119
f 191/119/119 158/118/118 159/120/120
f 191/119/119 159/120/120 190/121/121
f 190/121/121 159/120/120 160/122/122
f 190/121/121 160/122/122 189/123/123
f 189/123/123 160/122/122 161/124/124
f 189/123/123 161/124/124 188/125/125
f 188/125/125 161/124/124 162/126/126
f 188/125/125 162/126/126 187/127/127
f 187/127/127 162/126/126 163/128/128
f 187/127/127 163/128/128 186/129/129
f 186/129/129 163/128/128 164/130/130
f 186/129/129 164/130/130 185/131/131
f 185/131/131 164/130/130 165/132/132
f 185/131/131 165/132/132 184/133/133
f 184/133/133 165/132/132 166/134/134
f 184/133/133 166/134/134 183/135/135
f 183/135/135 166/134/134 167/136/136
f 183/135/135 167/136/136 182/137/137
f 182/137/137 167/136/136 168/138/138
f 182/137/137 168/138/138 181/139/139
f 181/139/139 168/138/138 169/140/140
f 181/139/139 169/140/140 180/141/141
f 180/141/141 169/140/140 170/142/142
f 180/141/141 170/142/142 179/143/143
f 179/143/143 170/142/142 171/144/144
f 179/143/143 171/144/144 178/145/145
f 178/145/145 171/144/144 172/146/146
f 178/145/145 172/146/146 177/147/147
f 177/147/147 172/146/146 173/148/148
f 177/147/147 173/148/148 176/149/149
f 176/149/149 173/148/148 174/150/150
f 176/149/149 174/150/150 175/151/151
f 149/100/100 100/99/99 148/152/152
f 148/152/152 100/99/99 101/153/153
f 148/152/152 101/153/153 147/154/154
f 147/154/154 101/153/153 102/155/155
f 147/154/154 102/155/155 146/156/156
f 146/156/156 102/155/155 103/157/157
f 146/156/156 103/157/157 145/158/158
f 145/158/158 103/157/157 104/159/159
f 145/158/158 104/159/159 105/160/160
f 105/160/160 106/161/161 145/158/158
f 145/158/158 106/161/161 107/162/162
f 145/158/158 107/162/162 108/163/163
f 108/163/163 109/164/164 145/158/158
f 145/158/158 109/164/164 110/165/165
f 145/158/158 110/165/165 111/166/166
f 111/166/166 112/167/167 145/158/158
f 145/158/158 112/167/167 113/168/168
f 145/158/158 113/168/168 114/169/169
f 114/169/169 115/170/170 145/158/158
f 145/158/158 115/170/170 116/171/171
f 145/158/158 116/171/171 117/172/172
f 117/172/172 118/173/173 145/158/158
f 145/158/158 118/173/173 119/174/174
f 145/158/158 119/174/174 120/175/175
f 120/175/175 121/176/176 145/158/158
f 145/158/158 121/176/176 122/177/177
f 145/158/158 122/177/177 123/178/178
f 123/178/178 124/179/179 145/158/158
f 145/158/158 124/179/179 125/180/180
f 145/158/158 125/180/180 126/181/181
f 126/181/181 127/182/182 145/158/158
f 145/158/158 127/182/182 128/183/183
f 145/158/158 128/183/183 129/184/184
f 129/184/184 130/185/185 145/158/158
f 145/158/158 130/185/185 131/186/186
f 145/158/158 131/186/186 132/187/187
f 132/187/187 133/188/188 145/158/158
f 145/158/158 133/188/188 134/189/189
f 145/158/158 134/189/189 135/190/190
f 135/190/190 136/191/191 145/158/158
f 145/158/158 136/191/191 137/192/192
f 145/158/158 137/192/192 138/193/193
f 145/158/158 138/193/193 144/194/194
f 144/194/194 138/193/193 139/195/195
f 144/194/194 139/195/195 140/196/196
f 140/196/196 141/197/197 144/194/194
f 144/194/194 141/197/197 142/198/198
f 144/194/194 142/198/198 143/199/199
f 201/200/200 2/201/201 200/202/202
f 200/202/202 2/201/201 1/203/203
f 200/204/202 1/205/203 297/206/204
f 297/206/204 1/205/203 98/207/205
f 297/206/204 98/207/205 97/208/206
f 201/200/200 202/209/207 2/201/201
f 2/201/201 202/209/207 3/210/208
f 3/210/208 202/209/207 203/211/209
f 3/210/208 203/211/209 4/212/210
f 4/212/210 203/211/209 204/213/211
f 4/212/210 204/213/211 5/214/212
f 5/214/212 204/213/211 205/215/213
f 5/214/212 205/215/213 6/216/214
f 6/216/214 205/215/213 206/217/215
f 6/216/214 206/217/215 7/218/216
f 7/218/216 206/217/215 207/219/217
f 7/218/216 207/219/217 8/220/218
f 8/220/218 207/219/217 208/221/219
f 8/220/218 208/221/219 9/222/220
f 9/222/220 208/221/219 209/223/221
f 9/222/220 209/223/221 10/224/222
f 10/224/222 209/223/221 210/225/223
f 10/224/222 210/225/223 11/226/224
f 11/226/224 210/225/223 211/227/225
f 11/226/224 211/227/225 12/228/226
f 12/228/226 211/227/225 212/229/227
f 12/228/226 212/229/227 13/230/228
f 13/230/228 212/229/227 213/231/229
f 13/230/228 213/231/229 14/232/230
f 14/232/230 213/231/229 214/233/231
f 14/232/230 214/233/231 15/234/232
f 15/234/232 214/233/231 215/235/233
f 15/234/232 215/235/233 16/236/234
f 16/236/234 215/235/233 216/237/235
f 16/236/234 216/237/235 17/238/236
f 17/238/236 216/237/235 217/239/237
f 17/238/236 217/239/237 18/240/238
f 18/240/238 217/239/237 218/241/239
f 18/240/238 218/241/239 19/242/240
f 19/242/240 218/241/239 219/243/241
f 19/242/240 219/243/241 20/244/242
f 20/244/242 219/243/241 220/245/243
f 20/244/242 220/245/243 21/246/244
f 21/246/244 220/245/243 221/247/245
f 21/246/244 221/247/245 22/248/246
f 22/248/246 221/247/245 222/249/247
f 22/248/246 222/249/247 23/250/248
f 23/250/248 222/249/247 223/251/249
f 23/250/248 223/251/249 24/252/250
f 24/252/250 223/251/249 224/253/251
f 24/252/250 224/253/251 25/254/252
f 25/254/252 224/253/251 225/255/253
f 25/254/252 225/255/253 26/256/254
f 26/256/254 225/255/253 226/257/255
f 26/256/254 226/257/255 27/258/256
f 27/258/256 226/257/255 227/259/257
f 27/258/256 227/259/257 28/260/258
f 28/260/258 227/259/257 228/261/259
f 28/260/258 228/261/259 29/262/260
f 29/262/260 228/261/259 229/263/261
f 29/262/260 229/263/261 30/264/262
f 30/264/262 229/263/261 230/265/263
f 30/264/262 230/265/263 31/266/264
f 31/266/264 230/265/263 231/267/265
f 31/266/264 231/267/265 32/268/266
f 32/268/266 231/267/265 232/269/267
f 32/268/266 232/269/267 33/270/268
f 33/270/268 232/269/267 233/271/269
f 33/270/268 233/271/269 34/272/270
f 34/272/270 233/271/269 234/273/271
f 34/272/270 234/273/271 35/274/272
f 35/274/272 234/273/271 235/275/273
f 35/274/272 235/275/273 36/276/274
f 36/276/274 235/275/273 236/277/275
f 36/276/274 236/277/275 37/278/276
f 37/278/276 236/277/275 237/279/277
f 37/278/276 237/279/277 38/280/278
f 38/280/278 237/279/277 238/281/279
f 38/280/278 238/281/279 39/282/280
f 39/282/280 238/281/279 239/283/281
f 39/282/280 239/283/281 40/284/282
f 40/284/282 239/283/281 240/285/283
f 40/284/282 240/285/283 41/286/284
f 41/286/284 240/285/283 241/287/285
f 41/286/284 241/287/285 42/288/286
f 42/288/286 241/287/285 242/289/287
f 42/288/286 242/289/287 43/290/288
f 43/290/288 242/289/287 243/291/289
f 43/290/288 243/291/289 44/292/290
f 44/292/290 243/291/289 244/293/291
f 44/292/290 244/293/291 45/294/292
f 45/294/292 244/293/291 245/295/293
f 45/294/292 245/295/293 46/296/294
f 46/296/294 245/295/293 246/297/295
f 46/296/294 246/297/295 47/298/296
f 47/298/296 246/297/295 247/299/297
f 47/298/296 247/299/297 48/300/298
f 48/300/298 247/299/297 248/301/299
f 48/300/298 248/301/299 49/302/300
f 49/302/300 248/301/299 249/303/301
f 49/302/300 249/303/301 50/304/302
f 50/304/302 249/303/301 250/305/303
f 50/304/302 250/305/303 51/306/304
f 51/306/304 250/305/303 251/307/305
f 51/306/304 251/307/305 52/308/306
f 52/308/306 251/307/305 252/309/307
f 52/308/306 252/309/307 53/310/308
f 53/310/308 252/309/307 253/311/309
f 53/310/308 253/311/309 54/312/310
f 54/312/310 253/311/309 254/313/311
f 54/312/310 254/313/311 55/314/312
f 55/314/312 254/313/311 255/315/313
f 55/314/312 255/315/313 56/316/314
f 56/316/314 255/315/313 256/317/315
f 56/316/314 256/317/315 57/318/316
f 57/318/316 256/317/315 257/319/317
f 57/318/316 257/319/317 58/320/318
f 58/320/318 257/319/317 258/321/319
f 58/320/318 258/321/319 59/322/320
f 59/322/320 258/321/319 259/323/321
f 59/322/320 259/323/321 60/324/322
f 60/324/322 259/323/321 260/325/323
f 60/324/322 260/325/323 61/326/324
f 61/326/324 260/325/323 261/327/325
f 61/326/324 261/327/325 62/328/326
f 62/328/326 261/327/325 262/329/327
f 62/328/326 262/329/327 63/330/328
f 63/330/328 262/329/327 263/331/329
f 63/330/328 263/331/329 64/332/330
f 64/332/330 263/331/329 264/333/331
f 64/332/330 264/333/331 65/334/332
f 65/334/332 264/333/331 265/335/333
f 65/334/332 265/335/333 66/336/334
f 66/336/334 265/335/333 266/337/335
f 66/336/334 266/337/335 67/338/336
f 67/338/336 266/337/335 267/339/337
f 67/338/336 267/339/337 68/340/338
f 68/340/338 267/339/337 268/341/339
f 68/340/338 268/341/339 69/342/340
f 69/342/340 268/341/339 269/343/341
f 69/342/340 269/343/341 70/344/342
f 70/344/342 269/343/341 270/345/343
f 70/344/342 270/345/343 71/346/344
f 71/346/344 270/345/343 271/347/345
f 71/346/344 271/347/345 72/348/346
f 72/348/346 271/347/345 272/349/347
f 72/348/346 272/349/347 73/350/348
f 73/350/348 272/349/347 273/351/349
f 73/350/348 273/351/349 74/352/350
f 74/352/350 273/351/349 274/353/351
f 74/352/350 274/353/351 75/354/352
f 75/354/352 274/353/351 275/355/353
f 75/354/352 275/355/353 76/356/354
f 76/356/354 275/355/353 276/357/355
f 76/356/354 276/357/355 77/358/356
f 77/358/356 276/357/355 277/359/357
f 77/358/356 277/359/357 78/360/358
f 78/360/358 277/359/357 278/361/359
f 78/360/358 278/361/359 79/362/360
f 79/362/360 278/361/359 279/363/361
f 79/362/360 279/363/361 80/364/362
f 80/364/362 279/363/361 280/365/363
f 80/364/362 280/365/363 81/366/364
f 81/366/364 280/365/363 281/367/365
f 81/366/364 281/367/365 82/368/366
f 82/368/366 281/367/365 282/369/367
f 82/368/366 282/369/367 83/370/368
f 83/370/368 282/369/367 283/371/369
f 83/370/368 283/371/369 84/372/370
f 84/372/370 283/371/369 284/373/371
f 84/372/370 284/373/371 85/374/372
f 85/374/372 284/373/371 285/375/373
f 85/374/372 285/375/373 86/376/374
f 86/376/374 285/375/373 286/377/375
f 86/376/374 286/377/375 87/378/376
f 87/378/376 286/377/375 287/379/377
f 87/378/376 287/379/377 88/380/378
f 88/380/378 287/379/377 288/381/379
f 88/380/378 288/381/379 89/382/380
f 89/382/380 288/381/379 289/383/381
f 89/382/380 289/383/381 90/384/382
f 90/384/382 289/383/381 290/385/383
f 90/384/382 290/385/383 91/386/384
f 91/386/384 290/385/383 291/387/385
f 91/386/384 291/387/385 92/388/386
f 92/388/386 291/387/385 292/389/387
f 92/388/386 292/389/387 93/390/388
f 93/390/388 292/389/387 293/391/389
f 93/390/388 293/391/389 94/392/390
f 94/392/390 293/391/389 294/393/391
f 94/392/390 294/393/391 95/394/392
f 95/394/392 294/393/391 295/395/393
f 95/394/392 295/395/393 96/396/394
f 96/396/394 295/395/393 296/397/395
f 96/396/394 296/397/395 97/208/206
f 97/208/206 296/397/395 297/206/204
f 199/398/396 398/399/397 99/400/398
f 99/400/398 398/399/397 298/401/399
f 99/402/398 298/403/399 100/404/400
f 100/404/400 298/403/399 299/405/401
f 100/404/400 299/405/401 101/406/402
f 101/406/402 299/405/401 300/407/403
f 101/406/402 300/407/403 102/408/404
f 102/408/404 300/407/403 301/409/405
f 102/408/404 301/409/405 103/410/406
f 103/410/406 301/409/405 302/411/407
f 103/410/406 302/411/407 104/412/408
f 104/412/408 302/411/407 303/413/409
f 104/412/408 303/413/409 105/414/410
f 105/414/410 303/413/409 304/415/411
f 105/414/410 304/415/411 106/416/412
f 106/416/412 304/415/411 305/417/413
f 106/416/412 305/417/413 107/418/414
f 107/418/414 305/417/413 306/419/415
f 107/418/414 306/419/415 108/420/416
f 108/420/416 306/419/415 307/421/417
f 108/420/416 307/421/417 109/422/418
f 109/422/418 307/421/417 308/423/419
f 109/422/418 308/423/419 110/424/420
f 110/424/420 308/423/419 309/425/421
f 110/424/420 309/425/421 111/426/422
f 111/426/422 309/425/421 310/427/423
f 111/426/422 310/427/423 112/428/424
f 112/428/424 310/427/423 311/429/425
f 112/428/424 311/429/425 113/430/426
f 113/430/426 311/429/425 312/431/427
f 113/430/426 312/431/427 114/432/428
f 114/432/428 312/431/427 313/433/429
f 114/432/428 313/433/429 115/434/430
f 115/434/430 313/433/429 314/435/431
f 115/434/430 314/435/431 116/436/432
f 116/436/432 314/435/431 315/437/433
f 116/436/432 315/437/433 117/438/434
f 117/438/434 315/437/433 316/439/435
f 117/438/434 316/439/435 118/440/436
f 118/440/436 316/439/435 317/441/437
f 118/440/436 317/441/437 119/442/438
f 119/442/438 317/441/437 318/443/439
f 119/442/438 318/443/439 120/444/440
f 120/444/440 318/443/439 319/445/441
f 120/444/440 319/445/441 121/446/442
f 121/446/442 319/445/441 320/447/443
f 121/446/442 320/447/443 122/448/444
f 122/448/444 320/447/443 321/449/445
f 122/448/444 321/449/445 123/450/446
f 123/450/446 321/449/445 322/451/447
f 123/450/446 322/451/447 124/452/448
f 124/452/448 322/451/447 323/453/449
f 124/452/448 323/453/449 125/454/450
f 125/454/450 323/453/449 324/455/451
f 125/454/450 324/455/451 126/456/452
f 126/456/452 324/455/451 325/457/453
f 126/456/452 325/457/453 127/458/454
f 127/458/454 325/457/453 326/459/455
f 127/458/454 326/459/455 128/460/456
f 128/460/456 326/459/455 327/461/457
f 128/460/456 327/461/457 129/462/458
f 129/462/458 327/461/457 328/463/459
f 129/462/458 328/463/459 130/464/460
f 130/464/460 328/463/459 329/465/461
f 130/464/460 329/465/461 131/466/462
f 131/466/462 329/465/461 330/467/463
f 131/466/462 330/467/463 132/468/464
f 132/468/464 330/467/463 331/469/465
f 132/468/464 331/469/465 133/470/466
f 133/470/466 331/469/465 332/471/467
f 133/470/466 332/471/467 134/472/468
f 134/472/468 332/471/467 333/473/469
f 134/472/468 333/473/469 135/474/470
f 135/474/470 333/473/469 334/475/471
f 135/474/470 334/475/471 136/476/472
f 136/476/472 334/475/471 335/477/473
f 136/476/472 335/477/473 137/478/474
f 137/478/474 335/477/473 336/479/475
f 137/478/474 336/479/475 138/480/476
f 138/480/476 336/479/475 337/481/477
f 138/480/476 337/481/477 139/482/478
f 139/482/478 337/481/477 338/483/479
f 139/482/478 338/483/479 140/484/480
f 140/484/480 338/483/479 339/485/481
f 140/484/480 339/485/481 141/486/482
f 141/486/482 339/485/481 340/487/483
f 141/486/482 340/487/483 142/488/484
f 142/488/484 340/487/483 341/489/485
f 142/488/484 341/489/485 143/490/486
f 143/490/486 341/489/485 342/491/487
f 143/490/486 342/491/487 144/492/488
f 144/492/488 342/491/487 343/493/489
f 144/492/488 343/493/489 145/494/490
f 145/494/490 343/493/489 344/495/491
f 145/494/490 344/495/491 146/496/492
f 146/496/492 344/495/491 345/497/493
f 146/496/492 345/497/493 147/498/494
f 147/498/494 345/497/493 346/499/495
f 147/498/494 346/499/495 148/500/496
f 148/500/496 346/499/495 347/501/497
f 148/500/496 347/501/497 149/502/498
f 149/502/498 347/501/497 348/503/499
f 149/502/498 348/503/499 150/504/500
f 150/504/500 348/503/499 349/505/501
f 150/504/500 349/505/501 151/506/502
f 151/506/502 349/505/501 350/507/503
f 151/506/502 350/507/503 152/508/504
f 152/508/504 350/507/503 351/509/505
f 152/508/504 351/509/505 153/510/506
f 153/510/506 351/509/505 352/511/507
f 153/510/506 352/511/507 154/512/508
f 154/512/508 352/511/507 353/513/509
f 154/512/508 353/513/509 155/514/510
f 155/514/510 353/513/509 354/515/511
f 155/514/510 354/515/511 156/516/512
f 156/516/512 354/515/511 355/517/513
f 156/516/512 355/517/513 157/518/514
f 157/518/514 355/517/513 356/519/515
f 157/518/514 356/519/515 158/520/516
f 158/520/516 356/519/515 357/521/517
f 158/520/516 357/521/517 159/522/518
f 159/522/518 357/521/517 358/523/519
f 159/522/518 358/523/519 160/524/520
f 160/524/520 358/523/519 359/525/521
f 160/524/520 359/525/521 161/526/522
f 161/526/522 359/525/521 360/527/523
f 161/526/522 360/527/523 162/528/524
f 162/528/524 360/527/523 361/529/525
f 162/528/524 361/529/525 163/530/526
f 163/530/526 361/529/525 362/531/527
f 163/530/526 362/531/527 164/532/528
f 164/532/528 362/531/527 363/533/529
f 164/532/528 363/533/529 165/534/530
f 165/534/530 363/533/529 364/535/531
f 165/534/530 364/535/531 166/536/532
f 166/536/532 364/535/531 365/537/533
f 166/536/532 365/537/533 167/538/534
f 167/538/534 365/537/533 366/539/535
f 167/538/534 366/539/535 168/540/536
f 168/540/536 366/539/535 367/541/537
f 168/540/536 367/541/537 169/542/538
f 169/542/538 367/541/537 368/543/539
f 169/542/538 368/543/539 170/544/540
f 170/544/540 368/543/539 369/545/541
f 170/544/540 369/545/541 171/546/542
f 171/546/542 369/545/541 370/547/543
f 171/546/542 370/547/543 172/548/544
f 172/548/544 370/547/543 371/549/545
f 172/548/544 371/549/545 173/550/546
f 173/550/546 371/549/545 372/551/547
f 173/550/546 372/551/547 174/552/548
f 174/552/548 372/551/547 373/553/549
f 174/552/548 373/553/549 175/554/550
f 175/554/550 373/553/549 374/555/551
f 175/554/550 374/555/551 176/556/552
f 176/556/552 374/555/551 375/557/553
f 176/556/552 375/557/553 177/558/554
f 177/558/554 375/557/553 376/559/555
f 177/558/554 376/559/555 178/560/556
f 178/560/556 376/559/555 377/561/557
f 178/560/556 377/561/557 179/562/558
f 179/562/558 377/561/557 378/563/559
f 179/562/558 378/563/559 180/564/560
f 180/564/560 378/563/559 379/565/561
f 180/564/560 379/565/561 181/566/562
f 181/566/562 379/565/561 380/567/563
f 181/566/562 380/567/563 182/568/564
f 182/568/564 380/567/563 381/569/565
f 182/568/564 381/569/565 183/570/566
f 183/570/566 381/569/565 382/571/567
f 183/570/566 382/571/567 184/572/568
f 184/572/568 382/571/567 383/573/569
f 184/572/568 383/573/569 185/574/570
f 185/574/570 383/573/569 384/575/571
f 185/574/570 384/575/571 186/576/572
f 186/576/572 384/575/571 385/577/573
f 186/576/572 385/577/573 187/578/574
f 187/578/574 385/577/573 386/579/575
f 187/578/574 386/579/575 188/580/576
f 188/580/576 386/579/575 387/581/577
f 188/580/576 387/581/577 189/582/578
f 189/582/578 387/581/577 388/583/579
f 189/582/578 388/583/579 190/584/580
f 190/584/580 388/583/579 389/585/581
f 190/584/580 389/585/581 191/586/582
f 191/586/582 389/585/581 390/587/583
f 191/586/582 390/587/583 192/588/584
f 192/588/584 390/587/583 391/589/585
f 192/588/584 391/589/585 193/590/586
f 193/590/586 391/589/585 392/591/587
f 193/590/586 392/591/587 194/592/588
f 194/592/588 392/591/587 393/593/589
f 194/592/588 393/593/589 195/594/590
f 195/594/590 393/593/589 394/595/591
f 195/594/590 394/595/591 196/596/592
f 196/596/592 394/595/591 395/597/593
f 196/596/592 395/597/593 197/598/594
f 197/598/594 395/597/593 396/599/595
f 197/598/594 396/599/595 198/600/596
f 198/600/596 396/599/595 397/601/597
f 198/600/596 397/601/597 199/398/396
f 199/398/396 397/601/597 398/399/397
f 297/602/598 299/603/599 200/604/600
f 200/604/600 299/603/599 298/605/601
f 200/604/600 298/605/601 398/606/602
f 299/603/599 297/602/598 300/607/603
f 300/607/603 297/602/598 296/608/604
f 300/607/603 296/608/604 301/609/605
f 301/609/605 296/608/604 295/610/606
f 301/609/605 295/610/606 302/611/607
f 302/611/607 295/610/606 294/612/608
f 302/611/607 294/612/608 303/613/609
f 303/613/609 294/612/608 293/614/610
f 303/613/609 293/614/610 304/615/611
f 304/615/611 293/614/610 292/616/612
f 304/615/611 292/616/612 305/617/613
f 305/617/613 292/616/612 291/618/614
f 305/617/613 291/618/614 306/619/615
f 306/619/615 291/618/614 290/620/616
f 306/619/615 290/620/616 307/621/617
f 307/621/617 290/620/616 289/622/618
f 307/621/617 289/622/618 308/623/619
f 308/623/619 289/622/618 288/624/620
f 308/623/619 288/624/620 309/625/621
f 309/625/621 288/624/620 287/626/622
f 309/625/621 287/626/622 310/627/623
f 310/627/623 287/626/622 286/628/624
f 310/627/623 286/628/624 311/629/625
f 311/629/625 286/628/624 285/630/626
f 311/629/625 285/630/626 312/631/627
f 312/631/627 285/630/626 284/632/628
f 312/631/627 284/632/628 313/633/629
f 313/633/629 284/632/628 283/634/630
f 313/633/629 283/634/630 314/635/631
f 314/635/631 283/634/630 282/636/632
f 314/635/631 282/636/632 315/637/633
f 315/637/633 282/636/632 281/638/634
f 315/637/633 281/638/634 316/639/635
f 316/639/635 281/638/634 280/640/636
f 316/639/635 280/640/636 317/641/637
f 317/641/637 280/640/636 279/642/638
f 317/641/637 279/642/638 318/643/639
f 318/643/639 279/642/638 278/644/640
f 318/643/639 278/644/640 319/645/641
f 319/645/641 278/644/640 277/646/642
f 319/645/641 277/646/642 320/647/643
f 320/647/643 277/646/642 276/648/644
f 320/647/643 276/648/644 321/649/645
f 321/649/645 276/648/644 275/650/646
f 321/649/645 275/650/646 322/651/647
f 322/651/647 275/650/646 274/652/648
f 322/651/647 274/652/648 323/653/649
f 323/653/649 274/652/648 273/654/650
f 323/653/649 273/654/650 324/655/651
f 324/655/651 273/654/650 272/656/652
f 324/655/651 272/656/652 325/657/653
f 325/657/653 272/656/652 271/658/654
f 325/657/653 271/658/654 326/659/655
f 326/659/655 271/658/654 270/660/656
f 326/659/655 270/660/656 327/661/657
f 327/661/657 270/660/656 269/662/658
f 327/661/657 269/662/658 328/663/659
f 328/663/659 269/662/658 268/664/660
f 328/663/659 268/664/660 329/665/661
f 329/665/661 268/664/660 267/666/662
f 329/665/661 267/666/662 330/667/663
f 330/667/663 267/666/662 266/668/664
f 330/667/663 266/668/664 331/669/665
f 331/669/665 266/668/664 265/670/666
f 331/669/665 265/670/666 332/671/667
f 332/671/667 265/670/666 333/672/668
f 333/672/668 265/670/666 264/673/669
f 333/672/668 264/673/669 334/674/670
f 334/674/670 264/673/669 263/675/671
f 334/674/670 263/675/671 335/676/672
f 335/676/672 263/675/671 262/677/673
f 335/676/672 262/677/673 336/678/674
f 336/678/674 262/677/673 261/679/675
f 336/678/674 261/679/675 337/680/676
f 337/680/676 261/679/675 260/681/677
f 337/680/676 260/681/677 338/682/678
f 338/682/678 260/681/677 259/683/679
f 338/682/678 259/683/679 339/684/680
f 339/684/680 259/683/679 258/685/681
f 339/684/680 258/685/681 340/686/682
f 340/686/682 258/685/681 257/687/683
f 340/686/682 257/687/683 341/688/684
f 341/688/684 257/687/683 256/689/685
f 341/688/684 256/689/685 342/690/686
f 342/690/686 256/689/685 255/691/687
f 342/690/686 255/691/687 343/692/688
f 343/692/688 255/691/687 254/693/689
f 343/692/688 254/693/689 344/694/690
f 344/694/690 254/693/689 253/695/691
f 344/694/690 253/695/691 345/696/692
f 345/696/692 253/695/691 252/697/693
f 345/696/692 252/697/693 346/698/694
f 346/698/694 252/697/693 251/699/695
f 346/698/694 251/699/695 347/700/696
f 347/700/696 251/699/695 250/701/697
f 347/700/696 250/701/697 348/702/698
f 348/702/698 250/701/697 249/703/699
f 348/702/698 249/703/699 349/704/700
f 349/704/700 249/703/699 248/705/701
f 349/704/700 248/705/701 350/706/702
f 350/706/702 248/705/701 247/707/703
f 350/706/702 247/707/703 351/708/704
f 351/708/704 247/707/703 246/709/705
f 351/708/704 246/709/705 352/710/706
f 352/710/706 246/709/705 245/711/707
f 352/710/706 245/711/707 353/712/708
f 353/712/708 245/711/707 244/713/709
f 353/712/708 244/713/709 354/714/710
f 354/714/710 244/713/709 243/715/711
f 354/714/710 243/715/711 355/716/712
f 355/716/712 243/715/711 242/717/713
f 355/716/712 242/717/713 356/718/714
f 356/718/714 242/717/713 241/719/715
f 356/718/714 241/719/715 357/720/716
f 357/720/716 241/719/715 240/721/717
f 357/720/716 240/721/717 358/722/718
f 358/722/718 240/721/717 239/723/719
f 358/722/718 239/723/719 359/724/720
f 359/724/720 239/723/719 238/725/721
f 359/724/720 238/725/721 360/726/722
f 360/726/722 238/725/721 237/727/723
f 360/726/722 237/727/723 361/728/724
f 361/728/724 237/727/723 236/729/725
f 361/728/724 236/729/725 362/730/726
f 362/730/726 236/729/725 235/731/727
f 362/730/726 235/731/727 363/732/728
f 363/732/728 235/731/727 234/733/729
f 363/732/728 234/733/729 364/734/730
f 364/734/730 234/733/729 233/735/731
f 364/734/730 233/735/731 365/736/732
f 365/736/732 233/735/731 366/737/733
f 366/737/733 233/735/731 232/738/734
f 366/737/733 232/738/734 367/739/735
f 367/739/735 232/738/734 231/740/736
f 367/739/735 231/740/736 368/741/737
f 368/741/737 231/740/736 230/742/738
f 368/741/737 230/742/738 369/743/739
f 369/743/739 230/742/738 229/744/740
f 369/743/739 229/744/740 370/745/741
f 370/745/741 229/744/740 228/746/742
f 370/745/741 228/746/742 371/747/743
f 371/747/743 228/746/742 227/748/744
f 371/747/743 227/748/744 372/749/745
f 372/749/745 227/748/744 226/750/746
f 372/749/745 226/750/746 373/751/747
f 373/751/747 226/750/746 225/752/748
f 373/751/747 225/752/748 374/753/749
f 374/753/749 225/752/748 224/754/750
f 374/753/749 224/754/750 375/755/751
f 375/755/751 224/754/750 223/756/752
f 375/755/751 223/756/752 376/757/753
f 376/757/753 223/756/752 222/758/754
f 376/757/753 222/758/754 377/759/755
f 377/759/755 222/758/754 221/760/756
f 377/759/755 221/760/756 378/761/757
f 378/761/757 221/760/756 220/762/758
f 378/761/757 220/762/758 379/763/759
f 379/763/759 220/762/758 219/764/760
f 379/763/759 219/764/760 380/765/761
f 380/765/761 219/764/760 218/766/762
f 380/765/761 218/766/762 381/767/763
f 381/767/763 218/766/762 217/768/764
f 381/767/763 217/768/764 382/769/765
f 382/769/765 217/768/764 216/770/766
f 382/769/765 216/770/766 383/771/767
f 383/771/767 216/770/766 215/772/768
f 383/771/767 215/772/768 384/773/769
f 384/773/769 215/772/768 214/774/770
f 384/773/769 214/774/770 385/775/771
f 385/775/771 214/774/770 213/776/772
f 385/775/771 213/776/772 386/777/773
f 386/777/773 213/776/772 212/778/774
f 386/777/773 212/778/774 387/779/775
f 387/779/775 212/778/774 211/780/776
f 387/779/775 211/780/776 388/781/777
f 388/781/777 211/780/776 210/782/778
f 388/781/777 210/782/778 389/783/779
f 389/783/779 210/782/778 209/784/780
f 389/783/779 209/784/780 390/785/781
f 390/785/781 209/784/780 208/786/782
f 390/785/781 208/786/782 391/787/783
f 391/787/783 208/786/782 207/788/784
f 391/787/783 207/788/784 392/789/785
f 392/789/785 207/788/784 206/790/786
f 392/789/785 206/790/786 393/791/787
f 393/791/787 206/790/786 205/792/788
f 393/791/787 205/792/788 394/793/789
f 394/793/789 205/792/788 204/794/790
f 394/793/789 204/794/790 395/795/791
f 395/795/791 204/794/790 203/796/792
f 395/795/791 203/796/792 396/797/793
f 396/797/793 203/796/792 202/798/794
f 396/797/793 202/798/794 397/799/795
f 397/799/795 202/798/794 201/800/796
f 397/799/795 201/800/796 398/606/602
f 398/606/602 201/800/796 200/604/600
