# WaveFront *.obj file (generated by Autodesk ATF)

v -6.500000 -0.000000 4.000000
v -6.488141 0.392460 4.000000
v -6.452608 0.783488 4.000000
v -6.393529 1.171658 4.000000
v -6.311122 1.555552 4.000000
v -6.205686 1.933770 4.000000
v -6.077606 2.304932 4.000000
v -5.927349 2.667683 4.000000
v -5.755464 3.020701 4.000000
v -5.562578 3.362696 4.000000
v -5.349395 3.692421 4.000000
v -5.116693 4.008673 4.000000
v -4.865320 4.310297 4.000000
v -4.596194 4.596194 4.000000
v -4.310297 4.865320 4.000000
v -4.008673 5.116693 4.000000
v -3.692421 5.349395 4.000000
v -3.362696 5.562578 4.000000
v -3.020701 5.755464 4.000000
v -2.667683 5.927349 4.000000
v -2.304932 6.077606 4.000000
v -1.933770 6.205686 4.000000
v -1.555552 6.311122 4.000000
v -1.171658 6.393529 4.000000
v -0.783488 6.452608 4.000000
v -0.392460 6.488141 4.000000
v 0.000000 6.500000 4.000000
v 0.392460 6.488141 4.000000
v 0.783488 6.452608 4.000000
v 1.171658 6.393529 4.000000
v 1.555552 6.311122 4.000000
v 1.933770 6.205686 4.000000
v 2.304932 6.077606 4.000000
v 2.667683 5.927349 4.000000
v 3.020701 5.755464 4.000000
v 3.362696 5.562578 4.000000
v 3.692421 5.349395 4.000000
v 4.008673 5.116693 4.000000
v 4.310297 4.865320 4.000000
v 4.596194 4.596194 4.000000
v 4.865320 4.310297 4.000000
v 5.116693 4.008673 4.000000
v 5.349395 3.692421 4.000000
v 5.562578 3.362696 4.000000
v 5.755464 3.020701 4.000000
v 5.927349 2.667683 4.000000
v 6.077606 2.304932 4.000000
v 6.205686 1.933770 4.000000
v 6.311122 1.555552 4.000000
v 6.393529 1.171658 4.000000
v 6.452608 0.783488 4.000000
v 6.488141 0.392460 4.000000
v 6.500000 0.000000 4.000000
v 6.488141 -0.392460 4.000000
v 6.452608 -0.783488 4.000000
v 6.393529 -1.171658 4.000000
v 6.311122 -1.555552 4.000000
v 6.205686 -1.933770 4.000000
v 6.077606 -2.304932 4.000000
v 5.927349 -2.667683 4.000000
v 5.755464 -3.020701 4.000000
v 5.562578 -3.362696 4.000000
v 5.349395 -3.692421 4.000000
v 5.116693 -4.008673 4.000000
v 4.865320 -4.310297 4.000000
v 4.596194 -4.596194 4.000000
v 4.310297 -4.865320 4.000000
v 4.008673 -5.116693 4.000000
v 3.692421 -5.349395 4.000000
v 3.362696 -5.562578 4.000000
v 3.020701 -5.755464 4.000000
v 2.667683 -5.927349 4.000000
v 2.304932 -6.077606 4.000000
v 1.933770 -6.205686 4.000000
v 1.555552 -6.311122 4.000000
v 1.171658 -6.393529 4.000000
v 0.783488 -6.452608 4.000000
v 0.392460 -6.488141 4.000000
v 0.000000 -6.500000 4.000000
v -0.392460 -6.488141 4.000000
v -0.783488 -6.452608 4.000000
v -1.171658 -6.393529 4.000000
v -1.555552 -6.311122 4.000000
v -1.933770 -6.205686 4.000000
v -2.304932 -6.077606 4.000000
v -2.667683 -5.927349 4.000000
v -3.020701 -5.755464 4.000000
v -3.362696 -5.562578 4.000000
v -3.692421 -5.349395 4.000000
v -4.008673 -5.116693 4.000000
v -4.310297 -4.865320 4.000000
v -4.596194 -4.596194 4.000000
v -4.865320 -4.310297 4.000000
v -5.116693 -4.008673 4.000000
v -5.349395 -3.692421 4.000000
v -5.562578 -3.362696 4.000000
v -5.755464 -3.020701 4.000000
v -5.927349 -2.667683 4.000000
v -6.077606 -2.304932 4.000000
v -6.205686 -1.933770 4.000000
v -6.311122 -1.555552 4.000000
v -6.393529 -1.171658 4.000000
v -6.452608 -0.783488 4.000000
v -6.488141 -0.392460 4.000000
v -6.500000 -0.000000 0.000000
v -6.488141 -0.392460 0.000000
v -6.452608 -0.783488 0.000000
v -6.393529 -1.171658 0.000000
v -6.311122 -1.555552 0.000000
v -6.205686 -1.933770 0.000000
v -6.077606 -2.304932 0.000000
v -5.927349 -2.667683 0.000000
v -5.755464 -3.020701 0.000000
v -5.562578 -3.362696 0.000000
v -5.349395 -3.692421 0.000000
v -5.116693 -4.008673 0.000000
v -4.865320 -4.310297 0.000000
v -4.596194 -4.596194 0.000000
v -4.310297 -4.865320 0.000000
v -4.008673 -5.116693 0.000000
v -3.692421 -5.349395 0.000000
v -3.362696 -5.562578 0.000000
v -3.020701 -5.755464 0.000000
v -2.667683 -5.927349 0.000000
v -2.304932 -6.077606 0.000000
v -1.933770 -6.205686 0.000000
v -1.555552 -6.311122 0.000000
v -1.171658 -6.393529 0.000000
v -0.783488 -6.452608 0.000000
v -0.392460 -6.488141 0.000000
v 0.000000 -6.500000 0.000000
v 0.392460 -6.488141 0.000000
v 0.783488 -6.452608 0.000000
v 1.171658 -6.393529 0.000000
v 1.555552 -6.311122 0.000000
v 1.933770 -6.205686 0.000000
v 2.304932 -6.077606 0.000000
v 2.667683 -5.927349 0.000000
v 3.020701 -5.755464 0.000000
v 3.362696 -5.562578 0.000000
v 3.692421 -5.349395 0.000000
v 4.008673 -5.116693 0.000000
v 4.310297 -4.865320 0.000000
v 4.596194 -4.596194 0.000000
v 4.865320 -4.310297 0.000000
v 5.116693 -4.008673 0.000000
v 5.349395 -3.692421 0.000000
v 5.562578 -3.362696 0.000000
v 5.755464 -3.020701 0.000000
v 5.927349 -2.667683 0.000000
v 6.077606 -2.304932 0.000000
v 6.205686 -1.933770 0.000000
v 6.311122 -1.555552 0.000000
v 6.393529 -1.171658 0.000000
v 6.452608 -0.783488 0.000000
v 6.488141 -0.392460 0.000000
v 6.500000 0.000000 0.000000
v 6.488141 0.392460 0.000000
v 6.452608 0.783488 0.000000
v 6.393529 1.171658 0.000000
v 6.311122 1.555552 0.000000
v 6.205686 1.933770 0.000000
v 6.077606 2.304932 0.000000
v 5.927349 2.667683 0.000000
v 5.755464 3.020701 0.000000
v 5.562578 3.362696 0.000000
v 5.349395 3.692421 0.000000
v 5.116693 4.008673 0.000000
v 4.865320 4.310297 0.000000
v 4.596194 4.596194 0.000000
v 4.310297 4.865320 0.000000
v 4.008673 5.116693 0.000000
v 3.692421 5.349395 0.000000
v 3.362696 5.562578 0.000000
v 3.020701 5.755464 0.000000
v 2.667683 5.927349 0.000000
v 2.304932 6.077606 0.000000
v 1.933770 6.205686 0.000000
v 1.555552 6.311122 0.000000
v 1.171658 6.393529 0.000000
v 0.783488 6.452608 0.000000
v 0.392460 6.488141 0.000000
v 0.000000 6.500000 0.000000
v -0.392460 6.488141 0.000000
v -0.783488 6.452608 0.000000
v -1.171658 6.393529 0.000000
v -1.555552 6.311122 0.000000
v -1.933770 6.205686 0.000000
v -2.304932 6.077606 0.000000
v -2.667683 5.927349 0.000000
v -3.020701 5.755464 0.000000
v -3.362696 5.562578 0.000000
v -3.692421 5.349395 0.000000
v -4.008673 5.116693 0.000000
v -4.310297 4.865320 0.000000
v -4.596194 4.596194 0.000000
v -4.865320 4.310297 0.000000
v -5.116693 4.008673 0.000000
v -5.349395 3.692421 0.000000
v -5.562578 3.362696 0.000000
v -5.755464 3.020701 0.000000
v -5.927349 2.667683 0.000000
v -6.077606 2.304932 0.000000
v -6.205686 1.933770 0.000000
v -6.311122 1.555552 0.000000
v -6.393529 1.171658 0.000000
v -6.452608 0.783488 0.000000
v -6.488141 0.392460 0.000000
vt -4.000000 20.027653 0.000000
vt -0.000000 20.027653 0.000000
vt -4.000000 20.420352 0.000000
vt -0.000000 20.420352 0.000000
vt -4.000000 -20.420352 0.000000
vt -0.000000 -20.420352 0.000000
vt -4.000000 -20.027653 0.000000
vt -0.000000 -20.027653 0.000000
vt -4.000000 -19.634954 0.000000
vt -0.000000 -19.634954 0.000000
vt -4.000000 -19.242255 0.000000
vt -0.000000 -19.242255 0.000000
vt -4.000000 -18.849556 0.000000
vt -0.000000 -18.849556 0.000000
vt -4.000000 -18.456857 0.000000
vt -0.000000 -18.456857 0.000000
vt -4.000000 -18.064158 0.000000
vt -0.000000 -18.064158 0.000000
vt -4.000000 -17.671459 0.000000
vt -0.000000 -17.671459 0.000000
vt -4.000000 -17.278760 0.000000
vt -0.000000 -17.278760 0.000000
vt -4.000000 -16.886061 0.000000
vt -0.000000 -16.886061 0.000000
vt -4.000000 -16.493361 0.000000
vt -0.000000 -16.493361 0.000000
vt -4.000000 -16.100662 0.000000
vt -0.000000 -16.100662 0.000000
vt -4.000000 -15.707963 0.000000
vt -0.000000 -15.707963 0.000000
vt -4.000000 -15.315264 0.000000
vt -0.000000 -15.315264 0.000000
vt -4.000000 -14.922565 0.000000
vt -0.000000 -14.922565 0.000000
vt -4.000000 -14.529866 0.000000
vt -0.000000 -14.529866 0.000000
vt -4.000000 -14.137167 0.000000
vt -0.000000 -14.137167 0.000000
vt -4.000000 -13.744468 0.000000
vt -0.000000 -13.744468 0.000000
vt -4.000000 -13.351769 0.000000
vt -0.000000 -13.351769 0.000000
vt -4.000000 -12.959070 0.000000
vt -0.000000 -12.959070 0.000000
vt -4.000000 -12.566371 0.000000
vt -0.000000 -12.566371 0.000000
vt -4.000000 -12.173672 0.000000
vt -0.000000 -12.173672 0.000000
vt -4.000000 -11.780972 0.000000
vt -0.000000 -11.780972 0.000000
vt -4.000000 -11.388273 0.000000
vt -0.000000 -11.388273 0.000000
vt -4.000000 -10.995574 0.000000
vt -0.000000 -10.995574 0.000000
vt -4.000000 -10.602875 0.000000
vt -0.000000 -10.602875 0.000000
vt -4.000000 -10.210176 0.000000
vt -0.000000 -10.210176 0.000000
vt -4.000000 -9.817477 0.000000
vt -0.000000 -9.817477 0.000000
vt -4.000000 -9.424778 0.000000
vt -0.000000 -9.424778 0.000000
vt -4.000000 -9.032079 0.000000
vt -0.000000 -9.032079 0.000000
vt -4.000000 -8.639380 0.000000
vt -0.000000 -8.639380 0.000000
vt -4.000000 -8.246681 0.000000
vt -0.000000 -8.246681 0.000000
vt -4.000000 -7.853982 0.000000
vt -0.000000 -7.853982 0.000000
vt -4.000000 -7.461283 0.000000
vt -0.000000 -7.461283 0.000000
vt -4.000000 -7.068583 0.000000
vt -0.000000 -7.068583 0.000000
vt -4.000000 -6.675884 0.000000
vt -0.000000 -6.675884 0.000000
vt -4.000000 -6.283185 0.000000
vt -0.000000 -6.283185 0.000000
vt -4.000000 -5.890486 0.000000
vt -0.000000 -5.890486 0.000000
vt -4.000000 -5.497787 0.000000
vt -0.000000 -5.497787 0.000000
vt -4.000000 -5.105088 0.000000
vt -0.000000 -5.105088 0.000000
vt -4.000000 -4.712389 0.000000
vt -0.000000 -4.712389 0.000000
vt -4.000000 -4.319690 0.000000
vt -0.000000 -4.319690 0.000000
vt -4.000000 -3.926991 0.000000
vt -0.000000 -3.926991 0.000000
vt -4.000000 -3.534292 0.000000
vt -0.000000 -3.534292 0.000000
vt -4.000000 -3.141593 0.000000
vt -0.000000 -3.141593 0.000000
vt -4.000000 -2.748894 0.000000
vt -0.000000 -2.748894 0.000000
vt -4.000000 -2.356194 0.000000
vt -0.000000 -2.356194 0.000000
vt -4.000000 -1.963495 0.000000
vt -0.000000 -1.963495 0.000000
vt -4.000000 -1.570796 0.000000
vt -0.000000 -1.570796 0.000000
vt -4.000000 -1.178097 0.000000
vt -0.000000 -1.178097 0.000000
vt -4.000000 -0.785398 0.000000
vt -0.000000 -0.785398 0.000000
vt -4.000000 -0.392699 0.000000
vt -0.000000 -0.392699 0.000000
vt -4.000000 0.000000 0.000000
vt -0.000000 0.000000 0.000000
vt -4.000000 0.392699 0.000000
vt -0.000000 0.392699 0.000000
vt -4.000000 0.785398 0.000000
vt -0.000000 0.785398 0.000000
vt -4.000000 1.178097 0.000000
vt -0.000000 1.178097 0.000000
vt -4.000000 1.570796 0.000000
vt -0.000000 1.570796 0.000000
vt -4.000000 1.963495 0.000000
vt -0.000000 1.963495 0.000000
vt -4.000000 2.356194 0.000000
vt -0.000000 2.356194 0.000000
vt -4.000000 2.748894 0.000000
vt -0.000000 2.748894 0.000000
vt -4.000000 3.141593 0.000000
vt -0.000000 3.141593 0.000000
vt -4.000000 3.534292 0.000000
vt -0.000000 3.534292 0.000000
vt -4.000000 3.926991 0.000000
vt -0.000000 3.926991 0.000000
vt -4.000000 4.319690 0.000000
vt -0.000000 4.319690 0.000000
vt -4.000000 4.712389 0.000000
vt -0.000000 4.712389 0.000000
vt -4.000000 5.105088 0.000000
vt -0.000000 5.105088 0.000000
vt -4.000000 5.497787 0.000000
vt -0.000000 5.497787 0.000000
vt -4.000000 5.890486 0.000000
vt -0.000000 5.890486 0.000000
vt -4.000000 6.283185 0.000000
vt -0.000000 6.283185 0.000000
vt -4.000000 6.675884 0.000000
vt -0.000000 6.675884 0.000000
vt -4.000000 7.068583 0.000000
vt -0.000000 7.068583 0.000000
vt -4.000000 7.461283 0.000000
vt -0.000000 7.461283 0.000000
vt -4.000000 7.853982 0.000000
vt -0.000000 7.853982 0.000000
vt -4.000000 8.246681 0.000000
vt -0.000000 8.246681 0.000000
vt -4.000000 8.639380 0.000000
vt -0.000000 8.639380 0.000000
vt -4.000000 9.032079 0.000000
vt -0.000000 9.032079 0.000000
vt -4.000000 9.424778 0.000000
vt -0.000000 9.424778 0.000000
vt -4.000000 9.817477 0.000000
vt -0.000000 9.817477 0.000000
vt -4.000000 10.210176 0.000000
vt -0.000000 10.210176 0.000000
vt -4.000000 10.602875 0.000000
vt -0.000000 10.602875 0.000000
vt -4.000000 10.995574 0.000000
vt -0.000000 10.995574 0.000000
vt -4.000000 11.388273 0.000000
vt -0.000000 11.388273 0.000000
vt -4.000000 11.780972 0.000000
vt -0.000000 11.780972 0.000000
vt -4.000000 12.173672 0.000000
vt -0.000000 12.173672 0.000000
vt -4.000000 12.566371 0.000000
vt -0.000000 12.566371 0.000000
vt -4.000000 12.959070 0.000000
vt -0.000000 12.959070 0.000000
vt -4.000000 13.351769 0.000000
vt -0.000000 13.351769 0.000000
vt -4.000000 13.744468 0.000000
vt -0.000000 13.744468 0.000000
vt -4.000000 14.137167 0.000000
vt -0.000000 14.137167 0.000000
vt -4.000000 14.529866 0.000000
vt -0.000000 14.529866 0.000000
vt -4.000000 14.922565 0.000000
vt -0.000000 14.922565 0.000000
vt -4.000000 15.315264 0.000000
vt -0.000000 15.315264 0.000000
vt -4.000000 15.707963 0.000000
vt -0.000000 15.707963 0.000000
vt -4.000000 16.100662 0.000000
vt -0.000000 16.100662 0.000000
vt -4.000000 16.493361 0.000000
vt -0.000000 16.493361 0.000000
vt -4.000000 16.886061 0.000000
vt -0.000000 16.886061 0.000000
vt -4.000000 17.278760 0.000000
vt -0.000000 17.278760 0.000000
vt -4.000000 17.671459 0.000000
vt -0.000000 17.671459 0.000000
vt -4.000000 18.064158 0.000000
vt -0.000000 18.064158 0.000000
vt -4.000000 18.456857 0.000000
vt -0.000000 18.456857 0.000000
vt -4.000000 18.849556 0.000000
vt -0.000000 18.849556 0.000000
vt -4.000000 19.242255 0.000000
vt -0.000000 19.242255 0.000000
vt -4.000000 19.634954 0.000000
vt -0.000000 19.634954 0.000000
vt -6.488141 -0.392460 0.000000
vt 6.488141 -0.392460 0.000000
vt -6.500000 -0.000000 0.000000
vt 6.500000 0.000000 0.000000
vt -6.488141 0.392460 0.000000
vt 6.488141 0.392460 0.000000
vt -6.452608 0.783488 0.000000
vt 6.452608 0.783488 0.000000
vt -6.393529 1.171658 0.000000
vt 6.393529 1.171658 0.000000
vt -6.311122 1.555552 0.000000
vt 6.311122 1.555552 0.000000
vt -6.205686 1.933770 0.000000
vt 6.205686 1.933770 0.000000
vt -6.077606 2.304932 0.000000
vt 6.077606 2.304932 0.000000
vt -5.927349 2.667683 0.000000
vt 5.927349 2.667683 0.000000
vt -5.755464 3.020701 0.000000
vt 5.755464 3.020701 0.000000
vt -5.562578 3.362696 0.000000
vt 5.562578 3.362696 0.000000
vt -5.349395 3.692421 0.000000
vt 5.349395 3.692421 0.000000
vt -5.116693 4.008673 0.000000
vt 5.116693 4.008673 0.000000
vt -4.865320 4.310297 0.000000
vt 4.865320 4.310297 0.000000
vt -4.596194 4.596194 0.000000
vt 4.596194 4.596194 0.000000
vt -4.310297 4.865320 0.000000
vt 4.310297 4.865320 0.000000
vt -4.008673 5.116693 0.000000
vt 4.008673 5.116693 0.000000
vt -3.692421 5.349395 0.000000
vt 3.692421 5.349395 0.000000
vt -3.362696 5.562578 0.000000
vt 3.362696 5.562578 0.000000
vt -3.020701 5.755464 0.000000
vt 3.020701 5.755464 0.000000
vt -2.667683 5.927349 0.000000
vt 2.667683 5.927349 0.000000
vt -2.304932 6.077606 0.000000
vt 2.304932 6.077606 0.000000
vt -1.933770 6.205686 0.000000
vt 1.933770 6.205686 0.000000
vt -1.555552 6.311122 0.000000
vt 1.555552 6.311122 0.000000
vt -1.171658 6.393529 0.000000
vt 1.171658 6.393529 0.000000
vt -0.783488 6.452608 0.000000
vt 0.783488 6.452608 0.000000
vt -0.392460 6.488141 0.000000
vt 0.392460 6.488141 0.000000
vt 0.000000 6.500000 0.000000
vt 6.452608 -0.783488 0.000000
vt -6.452608 -0.783488 0.000000
vt 6.393529 -1.171658 0.000000
vt -6.393529 -1.171658 0.000000
vt 6.311122 -1.555552 0.000000
vt -6.311122 -1.555552 0.000000
vt 6.205686 -1.933770 0.000000
vt -6.205686 -1.933770 0.000000
vt 6.077606 -2.304932 0.000000
vt -6.077606 -2.304932 0.000000
vt 5.927349 -2.667683 0.000000
vt -5.927349 -2.667683 0.000000
vt 5.755464 -3.020701 0.000000
vt -5.755464 -3.020701 0.000000
vt 5.562578 -3.362696 0.000000
vt -5.562578 -3.362696 0.000000
vt 5.349395 -3.692421 0.000000
vt -5.349395 -3.692421 0.000000
vt 5.116693 -4.008673 0.000000
vt -5.116693 -4.008673 0.000000
vt 4.865320 -4.310297 0.000000
vt -4.865320 -4.310297 0.000000
vt 4.596194 -4.596194 0.000000
vt -4.596194 -4.596194 0.000000
vt 4.310297 -4.865320 0.000000
vt -4.310297 -4.865320 0.000000
vt 4.008673 -5.116693 0.000000
vt -4.008673 -5.116693 0.000000
vt 3.692421 -5.349395 0.000000
vt -3.692421 -5.349395 0.000000
vt 3.362696 -5.562578 0.000000
vt -3.362696 -5.562578 0.000000
vt 3.020701 -5.755464 0.000000
vt -3.020701 -5.755464 0.000000
vt 2.667683 -5.927349 0.000000
vt -2.667683 -5.927349 0.000000
vt 2.304932 -6.077606 0.000000
vt -2.304932 -6.077606 0.000000
vt 1.933770 -6.205686 0.000000
vt -1.933770 -6.205686 0.000000
vt 1.555552 -6.311122 0.000000
vt -1.555552 -6.311122 0.000000
vt 1.171658 -6.393529 0.000000
vt -1.171658 -6.393529 0.000000
vt 0.783488 -6.452608 0.000000
vt -0.783488 -6.452608 0.000000
vt 0.392460 -6.488141 0.000000
vt -0.392460 -6.488141 0.000000
vt 0.000000 -6.500000 0.000000
vt 6.488141 0.392460 0.000000
vt -6.488141 0.392460 0.000000
vt 6.500000 -0.000000 0.000000
vt -6.500000 0.000000 0.000000
vt 6.488141 -0.392460 0.000000
vt -6.488141 -0.392460 0.000000
vt 6.452608 -0.783488 0.000000
vt -6.452608 -0.783488 0.000000
vt 6.393529 -1.171658 0.000000
vt -6.393529 -1.171658 0.000000
vt 6.311122 -1.555552 0.000000
vt -6.311122 -1.555552 0.000000
vt 6.205686 -1.933770 0.000000
vt -6.205686 -1.933770 0.000000
vt 6.077606 -2.304932 0.000000
vt -6.077606 -2.304932 0.000000
vt 5.927349 -2.667683 0.000000
vt -5.927349 -2.667683 0.000000
vt 5.755464 -3.020701 0.000000
vt -5.755464 -3.020701 0.000000
vt 5.562578 -3.362696 0.000000
vt -5.562578 -3.362696 0.000000
vt 5.349395 -3.692421 0.000000
vt -5.349395 -3.692421 0.000000
vt 5.116693 -4.008673 0.000000
vt -5.116693 -4.008673 0.000000
vt 4.865320 -4.310297 0.000000
vt -4.865320 -4.310297 0.000000
vt 4.596194 -4.596194 0.000000
vt -4.596194 -4.596194 0.000000
vt 4.310297 -4.865320 0.000000
vt -4.310297 -4.865320 0.000000
vt 4.008673 -5.116693 0.000000
vt -4.008673 -5.116693 0.000000
vt 3.692421 -5.349395 0.000000
vt -3.692421 -5.349395 0.000000
vt 3.362696 -5.562578 0.000000
vt -3.362696 -5.562578 0.000000
vt 3.020701 -5.755464 0.000000
vt -3.020701 -5.755464 0.000000
vt 2.667683 -5.927349 0.000000
vt -2.667683 -5.927349 0.000000
vt 2.304932 -6.077606 0.000000
vt -2.304932 -6.077606 0.000000
vt 1.933770 -6.205686 0.000000
vt -1.933770 -6.205686 0.000000
vt 1.555552 -6.311122 0.000000
vt -1.555552 -6.311122 0.000000
vt 1.171658 -6.393529 0.000000
vt -1.171658 -6.393529 0.000000
vt 0.783488 -6.452608 0.000000
vt -0.783488 -6.452608 0.000000
vt 0.392460 -6.488141 0.000000
vt -0.392460 -6.488141 0.000000
vt -0.000000 -6.500000 0.000000
vt -6.452608 0.783488 0.000000
vt 6.452608 0.783488 0.000000
vt -6.393529 1.171658 0.000000
vt 6.393529 1.171658 0.000000
vt -6.311122 1.555552 0.000000
vt 6.311122 1.555552 0.000000
vt -6.205686 1.933770 0.000000
vt 6.205686 1.933770 0.000000
vt -6.077606 2.304932 0.000000
vt 6.077606 2.304932 0.000000
vt -5.927349 2.667683 0.000000
vt 5.927349 2.667683 0.000000
vt -5.755464 3.020701 0.000000
vt 5.755464 3.020701 0.000000
vt -5.562578 3.362696 0.000000
vt 5.562578 3.362696 0.000000
vt -5.349395 3.692421 0.000000
vt 5.349395 3.692421 0.000000
vt -5.116693 4.008673 0.000000
vt 5.116693 4.008673 0.000000
vt -4.865320 4.310297 0.000000
vt 4.865320 4.310297 0.000000
vt -4.596194 4.596194 0.000000
vt 4.596194 4.596194 0.000000
vt -4.310297 4.865320 0.000000
vt 4.310297 4.865320 0.000000
vt -4.008673 5.116693 0.000000
vt 4.008673 5.116693 0.000000
vt -3.692421 5.349395 0.000000
vt 3.692421 5.349395 0.000000
vt -3.362696 5.562578 0.000000
vt 3.362696 5.562578 0.000000
vt -3.020701 5.755464 0.000000
vt 3.020701 5.755464 0.000000
vt -2.667683 5.927349 0.000000
vt 2.667683 5.927349 0.000000
vt -2.304932 6.077606 0.000000
vt 2.304932 6.077606 0.000000
vt -1.933770 6.205686 0.000000
vt 1.933770 6.205686 0.000000
vt -1.555552 6.311122 0.000000
vt 1.555552 6.311122 0.000000
vt -1.171658 6.393529 0.000000
vt 1.171658 6.393529 0.000000
vt -0.783488 6.452608 0.000000
vt 0.783488 6.452608 0.000000
vt -0.392460 6.488141 0.000000
vt 0.392460 6.488141 0.000000
vt -0.000000 6.500000 0.000000
vn -0.998176 0.060378 -0.000000
vn -0.998176 0.060378 -0.000000
vn -1.000000 0.000000 -0.000000
vn -1.000000 0.000000 -0.000000
vn -0.998176 -0.060378 0.000000
vn -0.998176 -0.060378 0.000000
vn -0.992709 -0.120537 0.000000
vn -0.992709 -0.120537 0.000000
vn -0.983620 -0.180255 0.000000
vn -0.983620 -0.180255 0.000000
vn -0.970942 -0.239316 0.000000
vn -0.970942 -0.239316 0.000000
vn -0.954721 -0.297503 0.000000
vn -0.954721 -0.297503 0.000000
vn -0.935016 -0.354605 0.000000
vn -0.935016 -0.354605 0.000000
vn -0.911900 -0.410413 0.000000
vn -0.911900 -0.410413 0.000000
vn -0.885456 -0.464723 0.000000
vn -0.885456 -0.464723 0.000000
vn -0.855781 -0.517338 0.000000
vn -0.855781 -0.517338 0.000000
vn -0.822984 -0.568065 0.000000
vn -0.822984 -0.568065 0.000000
vn -0.787183 -0.616719 0.000000
vn -0.787183 -0.616719 0.000000
vn -0.748511 -0.663123 0.000000
vn -0.748511 -0.663123 0.000000
vn -0.707107 -0.707107 0.000000
vn -0.707107 -0.707107 0.000000
vn -0.663123 -0.748511 0.000000
vn -0.663123 -0.748511 0.000000
vn -0.616719 -0.787183 0.000000
vn -0.616719 -0.787183 0.000000
vn -0.568065 -0.822984 0.000000
vn -0.568065 -0.822984 0.000000
vn -0.517338 -0.855781 0.000000
vn -0.517338 -0.855781 0.000000
vn -0.464723 -0.885456 0.000000
vn -0.464723 -0.885456 0.000000
vn -0.410413 -0.911900 0.000000
vn -0.410413 -0.911900 0.000000
vn -0.354605 -0.935016 0.000000
vn -0.354605 -0.935016 0.000000
vn -0.297503 -0.954721 0.000000
vn -0.297503 -0.954721 0.000000
vn -0.239316 -0.970942 0.000000
vn -0.239316 -0.970942 0.000000
vn -0.180255 -0.983620 0.000000
vn -0.180255 -0.983620 0.000000
vn -0.120537 -0.992709 0.000000
vn -0.120537 -0.992709 0.000000
vn -0.060378 -0.998176 0.000000
vn -0.060378 -0.998176 0.000000
vn 0.000000 -1.000000 -0.000000
vn 0.000000 -1.000000 -0.000000
vn 0.060378 -0.998176 -0.000000
vn 0.060378 -0.998176 -0.000000
vn 0.120537 -0.992709 -0.000000
vn 0.120537 -0.992709 -0.000000
vn 0.180255 -0.983620 -0.000000
vn 0.180255 -0.983620 -0.000000
vn 0.239316 -0.970942 -0.000000
vn 0.239316 -0.970942 -0.000000
vn 0.297503 -0.954721 -0.000000
vn 0.297503 -0.954721 -0.000000
vn 0.354605 -0.935016 -0.000000
vn 0.354605 -0.935016 -0.000000
vn 0.410413 -0.911900 -0.000000
vn 0.410413 -0.911900 -0.000000
vn 0.464723 -0.885456 -0.000000
vn 0.464723 -0.885456 -0.000000
vn 0.517338 -0.855781 -0.000000
vn 0.517338 -0.855781 -0.000000
vn 0.568065 -0.822984 -0.000000
vn 0.568065 -0.822984 -0.000000
vn 0.616719 -0.787183 -0.000000
vn 0.616719 -0.787183 -0.000000
vn 0.663123 -0.748511 -0.000000
vn 0.663123 -0.748511 -0.000000
vn 0.707107 -0.707107 -0.000000
vn 0.707107 -0.707107 -0.000000
vn 0.748511 -0.663123 -0.000000
vn 0.748511 -0.663123 -0.000000
vn 0.787183 -0.616719 -0.000000
vn 0.787183 -0.616719 -0.000000
vn 0.822984 -0.568065 -0.000000
vn 0.822984 -0.568065 -0.000000
vn 0.855781 -0.517338 -0.000000
vn 0.855781 -0.517338 -0.000000
vn 0.885456 -0.464723 -0.000000
vn 0.885456 -0.464723 -0.000000
vn 0.911900 -0.410413 -0.000000
vn 0.911900 -0.410413 -0.000000
vn 0.935016 -0.354605 -0.000000
vn 0.935016 -0.354605 -0.000000
vn 0.954721 -0.297503 -0.000000
vn 0.954721 -0.297503 -0.000000
vn 0.970942 -0.239316 -0.000000
vn 0.970942 -0.239316 -0.000000
vn 0.983620 -0.180255 -0.000000
vn 0.983620 -0.180255 -0.000000
vn 0.992709 -0.120537 -0.000000
vn 0.992709 -0.120537 -0.000000
vn 0.998176 -0.060378 -0.000000
vn 0.998176 -0.060378 -0.000000
vn 1.000000 -0.000000 -0.000000
vn 1.000000 -0.000000 -0.000000
vn 0.998176 0.060378 -0.000000
vn 0.998176 0.060378 -0.000000
vn 0.992709 0.120537 -0.000000
vn 0.992709 0.120537 -0.000000
vn 0.983620 0.180255 -0.000000
vn 0.983620 0.180255 -0.000000
vn 0.970942 0.239316 -0.000000
vn 0.970942 0.239316 -0.000000
vn 0.954721 0.297503 -0.000000
vn 0.954721 0.297503 -0.000000
vn 0.935016 0.354605 -0.000000
vn 0.935016 0.354605 -0.000000
vn 0.911900 0.410413 -0.000000
vn 0.911900 0.410413 -0.000000
vn 0.885456 0.464723 -0.000000
vn 0.885456 0.464723 -0.000000
vn 0.855781 0.517338 -0.000000
vn 0.855781 0.517338 -0.000000
vn 0.822984 0.568065 -0.000000
vn 0.822984 0.568065 -0.000000
vn 0.787183 0.616719 -0.000000
vn 0.787183 0.616719 -0.000000
vn 0.748511 0.663123 -0.000000
vn 0.748511 0.663123 -0.000000
vn 0.707107 0.707107 -0.000000
vn 0.707107 0.707107 -0.000000
vn 0.663123 0.748511 -0.000000
vn 0.663123 0.748511 -0.000000
vn 0.616719 0.787183 -0.000000
vn 0.616719 0.787183 -0.000000
vn 0.568065 0.822984 -0.000000
vn 0.568065 0.822984 -0.000000
vn 0.517338 0.855781 -0.000000
vn 0.517338 0.855781 -0.000000
vn 0.464723 0.885456 -0.000000
vn 0.464723 0.885456 -0.000000
vn 0.410413 0.911900 -0.000000
vn 0.410413 0.911900 -0.000000
vn 0.354605 0.935016 -0.000000
vn 0.354605 0.935016 -0.000000
vn 0.297503 0.954721 -0.000000
vn 0.297503 0.954721 -0.000000
vn 0.239316 0.970942 -0.000000
vn 0.239316 0.970942 -0.000000
vn 0.180255 0.983620 -0.000000
vn 0.180255 0.983620 -0.000000
vn 0.120537 0.992709 -0.000000
vn 0.120537 0.992709 -0.000000
vn 0.060378 0.998176 -0.000000
vn 0.060378 0.998176 -0.000000
vn 0.000000 1.000000 -0.000000
vn 0.000000 1.000000 -0.000000
vn -0.060378 0.998176 -0.000000
vn -0.060378 0.998176 -0.000000
vn -0.120537 0.992709 -0.000000
vn -0.120537 0.992709 -0.000000
vn -0.180255 0.983620 -0.000000
vn -0.180255 0.983620 -0.000000
vn -0.239316 0.970942 -0.000000
vn -0.239316 0.970942 -0.000000
vn -0.297503 0.954721 -0.000000
vn -0.297503 0.954721 -0.000000
vn -0.354605 0.935016 -0.000000
vn -0.354605 0.935016 -0.000000
vn -0.410413 0.911900 -0.000000
vn -0.410413 0.911900 -0.000000
vn -0.464723 0.885456 -0.000000
vn -0.464723 0.885456 -0.000000
vn -0.517338 0.855781 -0.000000
vn -0.517338 0.855781 -0.000000
vn -0.568065 0.822984 -0.000000
vn -0.568065 0.822984 -0.000000
vn -0.616719 0.787183 -0.000000
vn -0.616719 0.787183 -0.000000
vn -0.663123 0.748511 -0.000000
vn -0.663123 0.748511 -0.000000
vn -0.707107 0.707107 -0.000000
vn -0.707107 0.707107 -0.000000
vn -0.748511 0.663123 -0.000000
vn -0.748511 0.663123 -0.000000
vn -0.787183 0.616719 -0.000000
vn -0.787183 0.616719 -0.000000
vn -0.822984 0.568065 -0.000000
vn -0.822984 0.568065 -0.000000
vn -0.855781 0.517338 -0.000000
vn -0.855781 0.517338 -0.000000
vn -0.885456 0.464723 -0.000000
vn -0.885456 0.464723 -0.000000
vn -0.911900 0.410413 -0.000000
vn -0.911900 0.410413 -0.000000
vn -0.935016 0.354605 -0.000000
vn -0.935016 0.354605 -0.000000
vn -0.954721 0.297503 -0.000000
vn -0.954721 0.297503 -0.000000
vn -0.970942 0.239316 -0.000000
vn -0.970942 0.239316 -0.000000
vn -0.983620 0.180255 -0.000000
vn -0.983620 0.180255 -0.000000
vn -0.992709 0.120537 -0.000000
vn -0.992709 0.120537 -0.000000
vn 0.000000 0.000000 1.000000
vn 0.000000 0.000000 1.000000
vn 0.000000 0.000000 1.000000
vn 0.000000 0.000000 1.000000
vn 0.000000 0.000000 1.000000
vn 0.000000 0.000000 1.000000
vn 0.000000 0.000000 1.000000
vn 0.000000 0.000000 1.000000
vn 0.000000 0.000000 1.000000
vn 0.000000 0.000000 1.000000
vn 0.000000 0.000000 1.000000
vn 0.000000 0.000000 1.000000
vn 0.000000 0.000000 1.000000
vn 0.000000 0.000000 1.000000
vn 0.000000 0.000000 1.000000
vn 0.000000 0.000000 1.000000
vn 0.000000 0.000000 1.000000
vn 0.000000 0.000000 1.000000
vn 0.000000 0.000000 1.000000
vn 0.000000 0.000000 1.000000
vn 0.000000 0.000000 1.000000
vn 0.000000 0.000000 1.000000
vn 0.000000 0.000000 1.000000
vn 0.000000 0.000000 1.000000
vn 0.000000 0.000000 1.000000
vn 0.000000 0.000000 1.000000
vn 0.000000 0.000000 1.000000
vn 0.000000 0.000000 1.000000
vn 0.000000 0.000000 1.000000
vn 0.000000 0.000000 1.000000
vn 0.000000 0.000000 1.000000
vn 0.000000 0.000000 1.000000
vn 0.000000 0.000000 1.000000
vn 0.000000 0.000000 1.000000
vn 0.000000 0.000000 1.000000
vn 0.000000 0.000000 1.000000
vn 0.000000 0.000000 1.000000
vn 0.000000 0.000000 1.000000
vn 0.000000 0.000000 1.000000
vn 0.000000 0.000000 1.000000
vn 0.000000 0.000000 1.000000
vn 0.000000 0.000000 1.000000
vn 0.000000 0.000000 1.000000
vn 0.000000 0.000000 1.000000
vn 0.000000 0.000000 1.000000
vn 0.000000 0.000000 1.000000
vn 0.000000 0.000000 1.000000
vn 0.000000 0.000000 1.000000
vn 0.000000 0.000000 1.000000
vn 0.000000 0.000000 1.000000
vn 0.000000 0.000000 1.000000
vn 0.000000 0.000000 1.000000
vn 0.000000 0.000000 1.000000
vn 0.000000 0.000000 1.000000
vn 0.000000 0.000000 1.000000
vn 0.000000 0.000000 1.000000
vn 0.000000 0.000000 1.000000
vn 0.000000 0.000000 1.000000
vn 0.000000 0.000000 1.000000
vn 0.000000 0.000000 1.000000
vn 0.000000 0.000000 1.000000
vn 0.000000 0.000000 1.000000
vn 0.000000 0.000000 1.000000
vn 0.000000 0.000000 1.000000
vn 0.000000 0.000000 1.000000
vn 0.000000 0.000000 1.000000
vn 0.000000 0.000000 1.000000
vn 0.000000 0.000000 1.000000
vn 0.000000 0.000000 1.000000
vn 0.000000 0.000000 1.000000
vn 0.000000 0.000000 1.000000
vn 0.000000 0.000000 1.000000
vn 0.000000 0.000000 1.000000
vn 0.000000 0.000000 1.000000
vn 0.000000 0.000000 1.000000
vn 0.000000 0.000000 1.000000
vn 0.000000 0.000000 1.000000
vn 0.000000 0.000000 1.000000
vn 0.000000 0.000000 1.000000
vn 0.000000 0.000000 1.000000
vn 0.000000 0.000000 1.000000
vn 0.000000 0.000000 1.000000
vn 0.000000 0.000000 1.000000
vn 0.000000 0.000000 1.000000
vn 0.000000 0.000000 1.000000
vn 0.000000 0.000000 1.000000
vn 0.000000 0.000000 1.000000
vn 0.000000 0.000000 1.000000
vn 0.000000 0.000000 1.000000
vn 0.000000 0.000000 1.000000
vn 0.000000 0.000000 1.000000
vn 0.000000 0.000000 1.000000
vn 0.000000 0.000000 1.000000
vn 0.000000 0.000000 1.000000
vn 0.000000 0.000000 1.000000
vn 0.000000 0.000000 1.000000
vn 0.000000 0.000000 1.000000
vn 0.000000 0.000000 1.000000
vn 0.000000 0.000000 1.000000
vn 0.000000 0.000000 1.000000
vn 0.000000 0.000000 1.000000
vn 0.000000 0.000000 1.000000
vn 0.000000 0.000000 1.000000
vn 0.000000 0.000000 1.000000
vn -0.000000 -0.000000 -1.000000
vn -0.000000 -0.000000 -1.000000
vn -0.000000 -0.000000 -1.000000
vn -0.000000 -0.000000 -1.000000
vn -0.000000 -0.000000 -1.000000
vn -0.000000 -0.000000 -1.000000
vn -0.000000 -0.000000 -1.000000
vn -0.000000 -0.000000 -1.000000
vn -0.000000 -0.000000 -1.000000
vn -0.000000 -0.000000 -1.000000
vn -0.000000 -0.000000 -1.000000
vn -0.000000 -0.000000 -1.000000
vn -0.000000 -0.000000 -1.000000
vn -0.000000 -0.000000 -1.000000
vn -0.000000 -0.000000 -1.000000
vn -0.000000 -0.000000 -1.000000
vn -0.000000 -0.000000 -1.000000
vn -0.000000 -0.000000 -1.000000
vn -0.000000 -0.000000 -1.000000
vn -0.000000 -0.000000 -1.000000
vn -0.000000 -0.000000 -1.000000
vn -0.000000 -0.000000 -1.000000
vn -0.000000 -0.000000 -1.000000
vn -0.000000 -0.000000 -1.000000
vn -0.000000 -0.000000 -1.000000
vn -0.000000 -0.000000 -1.000000
vn -0.000000 -0.000000 -1.000000
vn -0.000000 -0.000000 -1.000000
vn -0.000000 -0.000000 -1.000000
vn -0.000000 -0.000000 -1.000000
vn -0.000000 -0.000000 -1.000000
vn -0.000000 -0.000000 -1.000000
vn -0.000000 -0.000000 -1.000000
vn -0.000000 -0.000000 -1.000000
vn -0.000000 -0.000000 -1.000000
vn -0.000000 -0.000000 -1.000000
vn -0.000000 -0.000000 -1.000000
vn -0.000000 -0.000000 -1.000000
vn -0.000000 -0.000000 -1.000000
vn -0.000000 -0.000000 -1.000000
vn -0.000000 -0.000000 -1.000000
vn -0.000000 -0.000000 -1.000000
vn -0.000000 -0.000000 -1.000000
vn -0.000000 -0.000000 -1.000000
vn -0.000000 -0.000000 -1.000000
vn -0.000000 -0.000000 -1.000000
vn -0.000000 -0.000000 -1.000000
vn -0.000000 -0.000000 -1.000000
vn -0.000000 -0.000000 -1.000000
vn -0.000000 -0.000000 -1.000000
vn -0.000000 -0.000000 -1.000000
vn -0.000000 -0.000000 -1.000000
vn -0.000000 -0.000000 -1.000000
vn -0.000000 -0.000000 -1.000000
vn -0.000000 -0.000000 -1.000000
vn -0.000000 -0.000000 -1.000000
vn -0.000000 -0.000000 -1.000000
vn -0.000000 -0.000000 -1.000000
vn -0.000000 -0.000000 -1.000000
vn -0.000000 -0.000000 -1.000000
vn -0.000000 -0.000000 -1.000000
vn -0.000000 -0.000000 -1.000000
vn -0.000000 -0.000000 -1.000000
vn -0.000000 -0.000000 -1.000000
vn -0.000000 -0.000000 -1.000000
vn -0.000000 -0.000000 -1.000000
vn -0.000000 -0.000000 -1.000000
vn -0.000000 -0.000000 -1.000000
vn -0.000000 -0.000000 -1.000000
vn -0.000000 -0.000000 -1.000000
vn -0.000000 -0.000000 -1.000000
vn -0.000000 -0.000000 -1.000000
vn -0.000000 -0.000000 -1.000000
vn -0.000000 -0.000000 -1.000000
vn -0.000000 -0.000000 -1.000000
vn -0.000000 -0.000000 -1.000000
vn -0.000000 -0.000000 -1.000000
vn -0.000000 -0.000000 -1.000000
vn -0.000000 -0.000000 -1.000000
vn -0.000000 -0.000000 -1.000000
vn -0.000000 -0.000000 -1.000000
vn -0.000000 -0.000000 -1.000000
vn -0.000000 -0.000000 -1.000000
vn -0.000000 -0.000000 -1.000000
vn -0.000000 -0.000000 -1.000000
vn -0.000000 -0.000000 -1.000000
vn -0.000000 -0.000000 -1.000000
vn -0.000000 -0.000000 -1.000000
vn -0.000000 -0.000000 -1.000000
vn -0.000000 -0.000000 -1.000000
vn -0.000000 -0.000000 -1.000000
vn -0.000000 -0.000000 -1.000000
vn -0.000000 -0.000000 -1.000000
vn -0.000000 -0.000000 -1.000000
vn -0.000000 -0.000000 -1.000000
vn -0.000000 -0.000000 -1.000000
vn -0.000000 -0.000000 -1.000000
vn -0.000000 -0.000000 -1.000000
vn -0.000000 -0.000000 -1.000000
vn -0.000000 -0.000000 -1.000000
vn -0.000000 -0.000000 -1.000000
vn -0.000000 -0.000000 -1.000000
vn -0.000000 -0.000000 -1.000000
vn -0.000000 -0.000000 -1.000000
usemtl 강철_-_새틴
f 2/1/1 208/2/2 1/3/3
f 1/3/3 208/2/2 105/4/4
f 1/5/3 105/6/4 104/7/5
f 104/7/5 105/6/4 106/8/6
f 104/7/5 106/8/6 103/9/7
f 103/9/7 106/8/6 107/10/8
f 103/9/7 107/10/8 102/11/9
f 102/11/9 107/10/8 108/12/10
f 102/11/9 108/12/10 101/13/11
f 101/13/11 108/12/10 109/14/12
f 101/13/11 109/14/12 100/15/13
f 100/15/13 109/14/12 110/16/14
f 100/15/13 110/16/14 99/17/15
f 99/17/15 110/16/14 111/18/16
f 99/17/15 111/18/16 98/19/17
f 98/19/17 111/18/16 112/20/18
f 98/19/17 112/20/18 97/21/19
f 97/21/19 112/20/18 113/22/20
f 97/21/19 113/22/20 96/23/21
f 96/23/21 113/22/20 114/24/22
f 96/23/21 114/24/22 95/25/23
f 95/25/23 114/24/22 115/26/24
f 95/25/23 115/26/24 94/27/25
f 94/27/25 115/26/24 116/28/26
f 94/27/25 116/28/26 93/29/27
f 93/29/27 116/28/26 117/30/28
f 93/29/27 117/30/28 92/31/29
f 92/31/29 117/30/28 118/32/30
f 92/31/29 118/32/30 91/33/31
f 91/33/31 118/32/30 119/34/32
f 91/33/31 119/34/32 90/35/33
f 90/35/33 119/34/32 120/36/34
f 90/35/33 120/36/34 89/37/35
f 89/37/35 120/36/34 121/38/36
f 89/37/35 121/38/36 88/39/37
f 88/39/37 121/38/36 122/40/38
f 88/39/37 122/40/38 87/41/39
f 87/41/39 122/40/38 123/42/40
f 87/41/39 123/42/40 86/43/41
f 86/43/41 123/42/40 124/44/42
f 86/43/41 124/44/42 85/45/43
f 85/45/43 124/44/42 125/46/44
f 85/45/43 125/46/44 84/47/45
f 84/47/45 125/46/44 126/48/46
f 84/47/45 126/48/46 83/49/47
f 83/49/47 126/48/46 127/50/48
f 83/49/47 127/50/48 82/51/49
f 82/51/49 127/50/48 128/52/50
f 82/51/49 128/52/50 81/53/51
f 81/53/51 128/52/50 129/54/52
f 81/53/51 129/54/52 80/55/53
f 80/55/53 129/54/52 130/56/54
f 80/55/53 130/56/54 79/57/55
f 79/57/55 130/56/54 131/58/56
f 79/57/55 131/58/56 78/59/57
f 78/59/57 131/58/56 132/60/58
f 78/59/57 132/60/58 77/61/59
f 77/61/59 132/60/58 133/62/60
f 77/61/59 133/62/60 76/63/61
f 76/63/61 133/62/60 134/64/62
f 76/63/61 134/64/62 75/65/63
f 75/65/63 134/64/62 135/66/64
f 75/65/63 135/66/64 74/67/65
f 74/67/65 135/66/64 136/68/66
f 74/67/65 136/68/66 73/69/67
f 73/69/67 136/68/66 137/70/68
f 73/69/67 137/70/68 72/71/69
f 72/71/69 137/70/68 138/72/70
f 72/71/69 138/72/70 71/73/71
f 71/73/71 138/72/70 139/74/72
f 71/73/71 139/74/72 70/75/73
f 70/75/73 139/74/72 140/76/74
f 70/75/73 140/76/74 69/77/75
f 69/77/75 140/76/74 141/78/76
f 69/77/75 141/78/76 68/79/77
f 68/79/77 141/78/76 142/80/78
f 68/79/77 142/80/78 67/81/79
f 67/81/79 142/80/78 143/82/80
f 67/81/79 143/82/80 66/83/81
f 66/83/81 143/82/80 144/84/82
f 66/83/81 144/84/82 65/85/83
f 65/85/83 144/84/82 145/86/84
f 65/85/83 145/86/84 64/87/85
f 64/87/85 145/86/84 146/88/86
f 64/87/85 146/88/86 63/89/87
f 63/89/87 146/88/86 147/90/88
f 63/89/87 147/90/88 62/91/89
f 62/91/89 147/90/88 148/92/90
f 62/91/89 148/92/90 61/93/91
f 61/93/91 148/92/90 149/94/92
f 61/93/91 149/94/92 60/95/93
f 60/95/93 149/94/92 150/96/94
f 60/95/93 150/96/94 59/97/95
f 59/97/95 150/96/94 151/98/96
f 59/97/95 151/98/96 58/99/97
f 58/99/97 151/98/96 152/100/98
f 58/99/97 152/100/98 57/101/99
f 57/101/99 152/100/98 153/102/100
f 57/101/99 153/102/100 56/103/101
f 56/103/101 153/102/100 154/104/102
f 56/103/101 154/104/102 55/105/103
f 55/105/103 154/104/102 155/106/104
f 55/105/103 155/106/104 54/107/105
f 54/107/105 155/106/104 156/108/106
f 54/107/105 156/108/106 53/109/107
f 53/109/107 156/108/106 157/110/108
f 53/109/107 157/110/108 52/111/109
f 52/111/109 157/110/108 158/112/110
f 52/111/109 158/112/110 51/113/111
f 51/113/111 158/112/110 159/114/112
f 51/113/111 159/114/112 50/115/113
f 50/115/113 159/114/112 160/116/114
f 50/115/113 160/116/114 49/117/115
f 49/117/115 160/116/114 161/118/116
f 49/117/115 161/118/116 48/119/117
f 48/119/117 161/118/116 162/120/118
f 48/119/117 162/120/118 47/121/119
f 47/121/119 162/120/118 163/122/120
f 47/121/119 163/122/120 46/123/121
f 46/123/121 163/122/120 164/124/122
f 46/123/121 164/124/122 45/125/123
f 45/125/123 164/124/122 165/126/124
f 45/125/123 165/126/124 44/127/125
f 44/127/125 165/126/124 166/128/126
f 44/127/125 166/128/126 43/129/127
f 43/129/127 166/128/126 167/130/128
f 43/129/127 167/130/128 42/131/129
f 42/131/129 167/130/128 168/132/130
f 42/131/129 168/132/130 41/133/131
f 41/133/131 168/132/130 169/134/132
f 41/133/131 169/134/132 40/135/133
f 40/135/133 169/134/132 170/136/134
f 40/135/133 170/136/134 39/137/135
f 39/137/135 170/136/134 171/138/136
f 39/137/135 171/138/136 38/139/137
f 38/139/137 171/138/136 172/140/138
f 38/139/137 172/140/138 37/141/139
f 37/141/139 172/140/138 173/142/140
f 37/141/139 173/142/140 36/143/141
f 36/143/141 173/142/140 174/144/142
f 36/143/141 174/144/142 35/145/143
f 35/145/143 174/144/142 175/146/144
f 35/145/143 175/146/144 34/147/145
f 34/147/145 175/146/144 176/148/146
f 34/147/145 176/148/146 33/149/147
f 33/149/147 176/148/146 177/150/148
f 33/149/147 177/150/148 32/151/149
f 32/151/149 177/150/148 178/152/150
f 32/151/149 178/152/150 31/153/151
f 31/153/151 178/152/150 179/154/152
f 31/153/151 179/154/152 30/155/153
f 30/155/153 179/154/152 180/156/154
f 30/155/153 180/156/154 29/157/155
f 29/157/155 180/156/154 181/158/156
f 29/157/155 181/158/156 28/159/157
f 28/159/157 181/158/156 182/160/158
f 28/159/157 182/160/158 27/161/159
f 27/161/159 182/160/158 183/162/160
f 27/161/159 183/162/160 26/163/161
f 26/163/161 183/162/160 184/164/162
f 26/163/161 184/164/162 25/165/163
f 25/165/163 184/164/162 185/166/164
f 25/165/163 185/166/164 24/167/165
f 24/167/165 185/166/164 186/168/166
f 24/167/165 186/168/166 23/169/167
f 23/169/167 186/168/166 187/170/168
f 23/169/167 187/170/168 22/171/169
f 22/171/169 187/170/168 188/172/170
f 22/171/169 188/172/170 21/173/171
f 21/173/171 188/172/170 189/174/172
f 21/173/171 189/174/172 20/175/173
f 20/175/173 189/174/172 190/176/174
f 20/175/173 190/176/174 19/177/175
f 19/177/175 190/176/174 191/178/176
f 19/177/175 191/178/176 18/179/177
f 18/179/177 191/178/176 192/180/178
f 18/179/177 192/180/178 17/181/179
f 17/181/179 192/180/178 193/182/180
f 17/181/179 193/182/180 16/183/181
f 16/183/181 193/182/180 194/184/182
f 16/183/181 194/184/182 15/185/183
f 15/185/183 194/184/182 195/186/184
f 15/185/183 195/186/184 14/187/185
f 14/187/185 195/186/184 196/188/186
f 14/187/185 196/188/186 13/189/187
f 13/189/187 196/188/186 197/190/188
f 13/189/187 197/190/188 12/191/189
f 12/191/189 197/190/188 198/192/190
f 12/191/189 198/192/190 11/193/191
f 11/193/191 198/192/190 199/194/192
f 11/193/191 199/194/192 10/195/193
f 10/195/193 199/194/192 200/196/194
f 10/195/193 200/196/194 9/197/195
f 9/197/195 200/196/194 201/198/196
f 9/197/195 201/198/196 8/199/197
f 8/199/197 201/198/196 202/200/198
f 8/199/197 202/200/198 7/201/199
f 7/201/199 202/200/198 203/202/200
f 7/201/199 203/202/200 6/203/201
f 6/203/201 203/202/200 204/204/202
f 6/203/201 204/204/202 5/205/203
f 5/205/203 204/204/202 205/206/204
f 5/205/203 205/206/204 4/207/205
f 4/207/205 205/206/204 206/208/206
f 4/207/205 206/208/206 3/209/207
f 3/209/207 206/208/206 207/210/208
f 3/209/207 207/210/208 2/1/1
f 2/1/1 207/210/208 208/2/2
f 104/211/209 54/212/210 1/213/211
f 1/213/211 54/212/210 53/214/212
f 1/213/211 53/214/212 2/215/213
f 2/215/213 53/214/212 52/216/214
f 2/215/213 52/216/214 3/217/215
f 3/217/215 52/216/214 51/218/216
f 3/217/215 51/218/216 4/219/217
f 4/219/217 51/218/216 50/220/218
f 4/219/217 50/220/218 5/221/219
f 5/221/219 50/220/218 49/222/220
f 5/221/219 49/222/220 6/223/221
f 6/223/221 49/222/220 48/224/222
f 6/223/221 48/224/222 7/225/223
f 7/225/223 48/224/222 47/226/224
f 7/225/223 47/226/224 8/227/225
f 8/227/225 47/226/224 46/228/226
f 8/227/225 46/228/226 9/229/227
f 9/229/227 46/228/226 45/230/228
f 9/229/227 45/230/228 10/231/229
f 10/231/229 45/230/228 44/232/230
f 10/231/229 44/232/230 11/233/231
f 11/233/231 44/232/230 43/234/232
f 11/233/231 43/234/232 12/235/233
f 12/235/233 43/234/232 42/236/234
f 12/235/233 42/236/234 13/237/235
f 13/237/235 42/236/234 41/238/236
f 13/237/235 41/238/236 14/239/237
f 14/239/237 41/238/236 40/240/238
f 14/239/237 40/240/238 15/241/239
f 15/241/239 40/240/238 39/242/240
f 15/241/239 39/242/240 16/243/241
f 16/243/241 39/242/240 38/244/242
f 16/243/241 38/244/242 17/245/243
f 17/245/243 38/244/242 37/246/244
f 17/245/243 37/246/244 18/247/245
f 18/247/245 37/246/244 36/248/246
f 18/247/245 36/248/246 19/249/247
f 19/249/247 36/248/246 35/250/248
f 19/249/247 35/250/248 20/251/249
f 20/251/249 35/250/248 34/252/250
f 20/251/249 34/252/250 21/253/251
f 21/253/251 34/252/250 33/254/252
f 21/253/251 33/254/252 22/255/253
f 22/255/253 33/254/252 32/256/254
f 22/255/253 32/256/254 23/257/255
f 23/257/255 32/256/254 31/258/256
f 23/257/255 31/258/256 24/259/257
f 24/259/257 31/258/256 30/260/258
f 24/259/257 30/260/258 25/261/259
f 25/261/259 30/260/258 29/262/260
f 25/261/259 29/262/260 26/263/261
f 26/263/261 29/262/260 28/264/262
f 26/263/261 28/264/262 27/265/263
f 54/212/210 104/211/209 55/266/264
f 55/266/264 104/211/209 103/267/265
f 55/266/264 103/267/265 56/268/266
f 56/268/266 103/267/265 102/269/267
f 56/268/266 102/269/267 57/270/268
f 57/270/268 102/269/267 101/271/269
f 57/270/268 101/271/269 58/272/270
f 58/272/270 101/271/269 100/273/271
f 58/272/270 100/273/271 59/274/272
f 59/274/272 100/273/271 99/275/273
f 59/274/272 99/275/273 60/276/274
f 60/276/274 99/275/273 98/277/275
f 60/276/274 98/277/275 61/278/276
f 61/278/276 98/277/275 97/279/277
f 61/278/276 97/279/277 62/280/278
f 62/280/278 97/279/277 96/281/279
f 62/280/278 96/281/279 63/282/280
f 63/282/280 96/281/279 95/283/281
f 63/282/280 95/283/281 64/284/282
f 64/284/282 95/283/281 94/285/283
f 64/284/282 94/285/283 65/286/284
f 65/286/284 94/285/283 93/287/285
f 65/286/284 93/287/285 66/288/286
f 66/288/286 93/287/285 92/289/287
f 66/288/286 92/289/287 67/290/288
f 67/290/288 92/289/287 91/291/289
f 67/290/288 91/291/289 68/292/290
f 68/292/290 91/291/289 90/293/291
f 68/292/290 90/293/291 69/294/292
f 69/294/292 90/293/291 89/295/293
f 69/294/292 89/295/293 70/296/294
f 70/296/294 89/295/293 88/297/295
f 70/296/294 88/297/295 71/298/296
f 71/298/296 88/297/295 87/299/297
f 71/298/296 87/299/297 72/300/298
f 72/300/298 87/299/297 86/301/299
f 72/300/298 86/301/299 73/302/300
f 73/302/300 86/301/299 85/303/301
f 73/302/300 85/303/301 74/304/302
f 74/304/302 85/303/301 84/305/303
f 74/304/302 84/305/303 75/306/304
f 75/306/304 84/305/303 83/307/305
f 75/306/304 83/307/305 76/308/306
f 76/308/306 83/307/305 82/309/307
f 76/308/306 82/309/307 77/310/308
f 77/310/308 82/309/307 81/311/309
f 77/310/308 81/311/309 78/312/310
f 78/312/310 81/311/309 80/313/311
f 78/312/310 80/313/311 79/314/312
f 208/315/313 158/316/314 105/317/315
f 105/317/315 158/316/314 157/318/316
f 105/317/315 157/318/316 106/319/317
f 106/319/317 157/318/316 156/320/318
f 106/319/317 156/320/318 107/321/319
f 107/321/319 156/320/318 155/322/320
f 107/321/319 155/322/320 108/323/321
f 108/323/321 155/322/320 154/324/322
f 108/323/321 154/324/322 109/325/323
f 109/325/323 154/324/322 153/326/324
f 109/325/323 153/326/324 110/327/325
f 110/327/325 153/326/324 152/328/326
f 110/327/325 152/328/326 111/329/327
f 111/329/327 152/328/326 151/330/328
f 111/329/327 151/330/328 112/331/329
f 112/331/329 151/330/328 150/332/330
f 112/331/329 150/332/330 113/333/331
f 113/333/331 150/332/330 149/334/332
f 113/333/331 149/334/332 114/335/333
f 114/335/333 149/334/332 148/336/334
f 114/335/333 148/336/334 115/337/335
f 115/337/335 148/336/334 147/338/336
f 115/337/335 147/338/336 116/339/337
f 116/339/337 147/338/336 146/340/338
f 116/339/337 146/340/338 117/341/339
f 117/341/339 146/340/338 145/342/340
f 117/341/339 145/342/340 118/343/341
f 118/343/341 145/342/340 144/344/342
f 118/343/341 144/344/342 119/345/343
f 119/345/343 144/344/342 143/346/344
f 119/345/343 143/346/344 120/347/345
f 120/347/345 143/346/344 142/348/346
f 120/347/345 142/348/346 121/349/347
f 121/349/347 142/348/346 141/350/348
f 121/349/347 141/350/348 122/351/349
f 122/351/349 141/350/348 140/352/350
f 122/351/349 140/352/350 123/353/351
f 123/353/351 140/352/350 139/354/352
f 123/353/351 139/354/352 124/355/353
f 124/355/353 139/354/352 138/356/354
f 124/355/353 138/356/354 125/357/355
f 125/357/355 138/356/354 137/358/356
f 125/357/355 137/358/356 126/359/357
f 126/359/357 137/358/356 136/360/358
f 126/359/357 136/360/358 127/361/359
f 127/361/359 136/360/358 135/362/360
f 127/361/359 135/362/360 128/363/361
f 128/363/361 135/362/360 134/364/362
f 128/363/361 134/364/362 129/365/363
f 129/365/363 134/364/362 133/366/364
f 129/365/363 133/366/364 130/367/365
f 130/367/365 133/366/364 132/368/366
f 130/367/365 132/368/366 131/369/367
f 158/316/314 208/315/313 159/370/368
f 159/370/368 208/315/313 207/371/369
f 159/370/368 207/371/369 160/372/370
f 160/372/370 207/371/369 206/373/371
f 160/372/370 206/373/371 161/374/372
f 161/374/372 206/373/371 205/375/373
f 161/374/372 205/375/373 162/376/374
f 162/376/374 205/375/373 204/377/375
f 162/376/374 204/377/375 163/378/376
f 163/378/376 204/377/375 203/379/377
f 163/378/376 203/379/377 164/380/378
f 164/380/378 203/379/377 202/381/379
f 164/380/378 202/381/379 165/382/380
f 165/382/380 202/381/379 201/383/381
f 165/382/380 201/383/381 166/384/382
f 166/384/382 201/383/381 200/385/383
f 166/384/382 200/385/383 167/386/384
f 167/386/384 200/385/383 199/387/385
f 167/386/384 199/387/385 168/388/386
f 168/388/386 199/387/385 198/389/387
f 168/388/386 198/389/387 169/390/388
f 169/390/388 198/389/387 197/391/389
f 169/390/388 197/391/389 170/392/390
f 170/392/390 197/391/389 196/393/391
f 170/392/390 196/393/391 171/394/392
f 171/394/392 196/393/391 195/395/393
f 171/394/392 195/395/393 172/396/394
f 172/396/394 195/395/393 194/397/395
f 172/396/394 194/397/395 173/398/396
f 173/398/396 194/397/395 193/399/397
f 173/398/396 193/399/397 174/400/398
f 174/400/398 193/399/397 192/401/399
f 174/400/398 192/401/399 175/402/400
f 175/402/400 192/401/399 191/403/401
f 175/402/400 191/403/401 176/404/402
f 176/404/402 191/403/401 190/405/403
f 176/404/402 190/405/403 177/406/404
f 177/406/404 190/405/403 189/407/405
f 177/406/404 189/407/405 178/408/406
f 178/408/406 189/407/405 188/409/407
f 178/408/406 188/409/407 179/410/408
f 179/410/408 188/409/407 187/411/409
f 179/410/408 187/411/409 180/412/410
f 180/412/410 187/411/409 186/413/411
f 180/412/410 186/413/411 181/414/412
f 181/414/412 186/413/411 185/415/413
f 181/414/412 185/415/413 182/416/414
f 182/416/414 185/415/413 184/417/415
f 182/416/414 184/417/415 183/418/416
# 208 vertices
# 418 texture params
# 416 normals
# 412 facets

# 1 groups
